<svg width="3288" height="4521" viewBox="0 0 3288 4521" fill="none" xmlns="http://www.w3.org/2000/svg">
<g clip-path="url(#clip0_166_26)">
<path d="M1438.44 1797.08C1511.77 1822.04 1570.1 1865.87 1620.89 1921.77C1646.84 1950.34 1657.32 1948.87 1685.39 1920.92C1700.82 1905.56 1714.86 1888.78 1730.57 1873.73C1789.46 1817.25 1860.24 1781.67 1938.57 1762.26C1974.69 1753.31 2011.45 1758.36 2045.38 1776.92C2077.02 1794.23 2109.64 1809.76 2141.06 1827.45C2152.75 1834.03 2164.4 1842.99 2172.03 1853.73C2178.07 1862.23 2181.23 1875.58 2179.76 1885.93C2177.75 1900.08 2179.95 1910.18 2191.08 1918.7C2273.74 1981.91 2339.85 2059.71 2392.45 2149.09C2402.66 2166.44 2409.65 2185.67 2419.78 2207.64C2401.49 2205.28 2388.48 2203.6 2371.63 2201.43C2375.02 2211.35 2376.77 2217.65 2379.28 2223.63C2396.84 2265.48 2414.55 2307.27 2432.23 2349.07C2477.78 2456.83 2439.5 2599.95 2359.57 2665.7C2344.04 2678.48 2331.64 2695.08 2314.27 2713.7C2307.59 2695.65 2302.45 2681.77 2295.27 2662.37C2282.74 2675.73 2270.99 2684.94 2263.55 2696.85C2248.43 2721.08 2236.12 2747.04 2221.72 2771.75C2208.99 2793.59 2200.25 2793.43 2184.5 2773.81C2174.42 2761.25 2163.8 2748.96 2152.14 2737.9C2146.29 2732.35 2137.58 2729.81 2130.16 2725.91C2128.48 2727.03 2126.79 2728.15 2125.11 2729.27C2127.4 2737.58 2129.07 2746.11 2132.08 2754.15C2148.82 2798.97 2167.02 2843.29 2182.53 2888.53C2198.22 2934.26 2189.77 2957.94 2152.57 2988.2C2143.78 2995.35 2136.51 3004.37 2127.45 3013.65C2146.35 3027.7 2164.47 3023.49 2181.95 3021.8C2191.79 3020.84 2201.35 3017.21 2211.18 3015.97C2223.15 3014.47 2237.94 3013.81 2241.14 3027.62C2243.36 3037.2 2239.88 3051.59 2233.43 3059.08C2208.63 3087.88 2176.58 3107.03 2140.82 3119.82C2129.77 3123.78 2118.59 3127.37 2107.23 3134.71C2114.37 3135.94 2121.47 3137.92 2128.66 3138.27C2159.1 3139.74 2189.57 3140.63 2220.03 3141.92C2244.63 3142.96 2253.14 3157.96 2241.7 3179.7C2221.31 3218.43 2174.05 3240.54 2130.14 3233.31C2099 3228.19 2068.33 3229.16 2035.58 3251.43C2049.26 3255.84 2058.41 3259.68 2067.95 3261.69C2095.89 3267.56 2124.33 3271.34 2151.92 3278.49C2186.13 3287.36 2187.94 3296.73 2163 3321.07C2125.4 3357.79 2082.05 3382.75 2028.58 3387.31C1992.41 3390.39 1956.81 3384.83 1924.91 3369.28C1862.95 3339.08 1800.07 3310 1745.63 3266.33C1703.87 3232.81 1695.77 3193.73 1723.03 3148.28C1758.38 3089.37 1805.79 3043.99 1866.8 3010.76C1901.78 2991.71 1935.73 2967.53 1963.4 2939.1C2003.36 2898.03 1984.95 2810.21 1935.03 2781.97C1921.53 2774.33 1912.18 2778.19 1909.74 2793.76C1907.44 2808.46 1907.19 2823.48 1905.6 2838.31C1902.84 2864.16 1893.68 2870.31 1870.23 2860.91C1831.62 2845.44 1793.64 2849.06 1758.64 2868.62C1690.58 2906.65 1623.62 2904.17 1555.46 2870.18C1526.26 2855.62 1497.06 2856.27 1468.18 2873C1440.18 2889.22 1429.03 2883.58 1423.35 2852.19C1421.03 2839.37 1419.34 2826.25 1415.28 2813.95C1406.67 2787.89 1383.33 2782.89 1365.05 2803.51C1357.9 2811.59 1350.81 2822.25 1349.49 2832.48C1346.33 2856.97 1343.72 2882.26 1346.68 2906.52C1348.26 2919.44 1359.36 2934.45 1370.54 2942.31C1399.83 2962.93 1430.21 2982.96 1462.54 2998.14C1533.05 3031.25 1583.3 3085.14 1623 3149.49C1648.74 3191.21 1640.7 3233.69 1606.06 3268.56C1576.4 3298.42 1542.63 3322.33 1504.26 3340.01C1473.19 3354.33 1443.39 3371.59 1411.84 3384.67C1340.54 3414.23 1273.37 3405.46 1211.61 3358.5C1199.73 3349.46 1186.64 3341.76 1175.96 3331.51C1169.79 3325.59 1167.34 3315.81 1163.21 3307.77C1170.76 3304.88 1178.11 3300.26 1185.89 3299.38C1229.36 3294.46 1269.88 3280.25 1312.98 3264.15C1297.13 3246.46 1279.16 3244.15 1261.66 3244.58C1243.79 3245.02 1225.27 3246.76 1208.36 3252.1C1172.75 3263.36 1105.84 3218.26 1093.8 3191.73C1082.98 3167.9 1092.85 3152.32 1118.8 3152.44C1151.78 3152.58 1184.77 3152.96 1217.74 3152.58C1225.55 3152.5 1233.34 3149.82 1243.05 3147.97C1214.65 3137.97 1187.97 3129.22 1161.77 3119.19C1135.46 3109.12 1110.39 3096.8 1093.39 3072.63C1080.92 3054.91 1084.73 3041.1 1105.6 3036.64C1116.8 3034.24 1128.95 3035.41 1140.58 3036.2C1166.82 3037.98 1193.01 3040.52 1219.22 3042.75C1219.96 3040.59 1220.69 3038.43 1221.43 3036.27C1208.6 3025.16 1196.02 3013.73 1182.89 3002.99C1141.31 2968.99 1137.09 2952.59 1154.06 2900.99C1169.01 2855.56 1182.65 2809.7 1196.48 2763.92C1198.36 2757.69 1198.01 2750.79 1199.06 2740.59C1164.87 2754.67 1151.38 2787.39 1121.48 2807.71C1092.55 2764.28 1063.98 2721.39 1035.41 2678.5C1033.35 2678.93 1031.3 2679.37 1029.24 2679.81C1025.69 2690.64 1021.73 2701.36 1018.7 2712.34C1015.26 2724.84 1009.33 2727.38 998.805 2719.28C931.361 2667.42 882.727 2602.55 869.156 2517.21C861.032 2466.13 861.716 2414.09 882.097 2364.58C897.001 2328.38 912.069 2292.24 926.491 2255.85C929.04 2249.42 931.881 2239.65 928.905 2235.46C926.015 2231.39 915.695 2231.04 908.856 2231.63C889.831 2233.25 886.377 2231.25 893.676 2213.31C903.931 2188.1 915.862 2163.2 930.122 2140.05C975.361 2066.6 1029.49 2000.05 1091.54 1940.07C1103.21 1928.79 1111.1 1918.42 1107.37 1899.56C1105.45 1889.82 1113.05 1874.48 1121.24 1867.04C1182.05 1811.78 1251.4 1772.81 1335.4 1768.73C1371.4 1766.98 1404.77 1781.47 1438.44 1797.08ZM1909.55 2203.76C1920.51 2235.63 1911.85 2263.79 1892.79 2289.69C1874.32 2314.79 1865.69 2316.28 1839.26 2300.23C1836.09 2298.29 1832.64 2294.98 1829.49 2295.16C1817.83 2295.83 1806.24 2297.69 1794.63 2299.11C1796.23 2308.74 1795.41 2319.69 1799.81 2327.81C1840.67 2403.19 1882.2 2478.2 1924.1 2553.01C1932.55 2568.09 1942.25 2582.81 1953.48 2595.89C1963.96 2608.1 1972.29 2605.7 1977.58 2590.53C1980.62 2581.82 1982.45 2572.58 1983.88 2563.43C1988.28 2535.22 1990.58 2506.58 1996.8 2478.79C2003.56 2448.56 2016.75 2442.55 2045.72 2453C2103.89 2473.98 2157.65 2465.26 2209.05 2431.82C2248.11 2406.41 2270.07 2375.48 2257.72 2325.93C2251.11 2299.43 2259.58 2290.06 2285.79 2283.32C2290.37 2282.14 2294.83 2280.54 2299.22 2279.17C2292.96 2251.45 2275.32 2235.66 2245.76 2235.72C2214.83 2235.78 2183.94 2240.2 2152.97 2241.43C2143.25 2241.82 2133.36 2238.09 2123.55 2236.24C2126.73 2227.25 2128.27 2217.12 2133.48 2209.52C2142.31 2196.64 2153.46 2185.35 2165.68 2170.98C2154.05 2171.73 2146.02 2172.16 2138.01 2172.77C2094.05 2176.13 2055.3 2193.45 2018.45 2216.53C1994.2 2231.73 1986.08 2229.84 1968.73 2206.58C1955.35 2188.65 1943.82 2169.24 1929.49 2152.15C1916.85 2137.07 1901.81 2123.9 1887.05 2110.77C1883.62 2107.72 1877.02 2108.25 1871.88 2107.13C1871.19 2112.91 1869.35 2118.86 1870.16 2124.43C1870.92 2129.75 1874.22 2134.79 1876.79 2139.74C1887.39 2160.14 1898.13 2180.47 1909.55 2203.76ZM1239.82 2210.48C1212.28 2195.95 1183.45 2189.78 1149.72 2195.82C1161.51 2209.43 1172.34 2220.42 1181.2 2232.82C1185.39 2238.67 1188.39 2247.83 1186.87 2254.3C1186.07 2257.71 1174.35 2260.36 1167.62 2260.25C1135.93 2259.74 1104.17 2256.28 1072.6 2257.68C1054.59 2258.47 1036.16 2264.84 1019.42 2272.16C1012.16 2275.33 1008.69 2287.19 1003.49 2295.1C1011.15 2299.11 1018.62 2303.58 1026.57 2306.9C1030.41 2308.51 1035.21 2307.65 1039.48 2308.41C1052.82 2310.79 1058.66 2319.15 1057.24 2332.37C1056.58 2338.52 1055.4 2344.72 1053.59 2350.63C1044.64 2379.92 1055.26 2402.93 1076.13 2422.83C1130.8 2474.96 1193.92 2491.23 1266.87 2469.18C1309.45 2456.31 1321.26 2464.08 1330.35 2507.61C1330.61 2508.82 1330.76 2510.06 1330.92 2511.3C1334.47 2539.66 1337.17 2568.16 1342 2596.3C1343.74 2606.49 1350.54 2615.81 1355.04 2625.53C1362.75 2618.22 1373.09 2612.27 1377.72 2603.36C1396.32 2567.48 1412.95 2530.59 1430.68 2494.25C1456.26 2441.83 1482.16 2389.55 1507.95 2337.23C1510.43 2332.2 1513.1 2327.28 1515.71 2322.33C1522.06 2310.29 1515.39 2302.07 1504.99 2303.31C1489.64 2305.14 1473.46 2309.5 1460.27 2317.26C1445.83 2325.74 1434.45 2325.76 1423.31 2314.89C1402.62 2294.69 1389.48 2269.15 1396.28 2240.98C1404.05 2208.74 1418.53 2178.11 1430.08 2146.77C1433.08 2138.63 1436 2130.45 1438.95 2122.28C1437.05 2120.74 1435.15 2119.2 1433.25 2117.65C1420.93 2125.28 1407.4 2131.5 1396.51 2140.8C1367.94 2165.23 1344.01 2193.58 1326.99 2227.68C1316.18 2249.33 1308.17 2251.17 1286.66 2239.33C1271.42 2230.94 1256.95 2221.15 1239.82 2210.48Z" fill="#BB9629"/>
<path d="M1741.46 549.014C1765.89 588.084 1786.16 628.849 1814.39 663.035C1863.43 722.411 1927.37 751.973 2006.33 736.149C2042.89 728.821 2071.11 706.944 2091.33 676.563C2109.2 649.713 2124.21 620.912 2139.73 592.565C2148.49 576.567 2149.63 559.309 2142.91 542.057C2139.52 533.383 2136.23 524.544 2131.67 516.481C2104.58 468.685 2118.12 450.574 2149.27 417.469C2168.19 397.354 2191.87 386.344 2220.08 397.43C2248.12 408.448 2263.03 431.236 2267.85 459.664C2274.07 496.291 2264.04 527.723 2231.31 548.881C2216.01 558.773 2209.54 572.417 2211.89 590.132C2216.45 624.556 2216.64 660.466 2227.17 692.998C2247.09 754.495 2327.41 783.886 2390.6 759.054C2467.99 728.641 2523.25 675.175 2561.01 602.183C2566.44 591.682 2572.04 581.258 2577.92 571.003C2599.44 533.475 2605.56 495.213 2590.45 452.977C2576.62 414.337 2587.29 388.384 2621.73 362.122C2649.81 340.712 2677.16 338.735 2704.79 356.12C2740.91 378.843 2757.67 412.477 2749.38 448.948C2747.28 458.181 2741.63 467.347 2735.43 474.704C2729.16 482.147 2720.98 488.925 2712.26 493.193C2672.65 512.578 2655.05 546.18 2642.8 586.938C2601.28 725.077 2557.45 862.523 2514.16 1000.13C2509.7 1014.31 2503.88 1028.25 2497.04 1041.45C2488.41 1058.07 2478.07 1060.19 2461.66 1050.81C2429.39 1032.39 2424.09 1019.85 2437.16 985.222C2458.47 928.805 2480.85 872.795 2502.59 816.542C2504.94 810.466 2506.06 803.917 2506.01 795.166C2449.46 837.29 2389.3 863.821 2317.64 852.307C2246.34 840.852 2196.2 798.616 2155.33 738.963C2142.98 748.516 2133.15 757.973 2121.69 764.623C2091.15 782.349 2061.06 801.632 2028.66 815.212C1981.18 835.114 1933.24 826.175 1887.18 806.865C1824.96 780.781 1773.62 740.46 1732.95 686.574C1728.84 681.129 1724.15 676.105 1719.49 671.108C1718.38 669.922 1716.32 669.631 1709.75 666.789C1712.8 680.02 1713.53 690.808 1717.7 700.045C1751.6 775.186 1807.12 826.799 1884.79 855.897C1941.58 877.176 2001.03 881.745 2060.13 889.2C2163.08 902.186 2262.44 929.451 2359.77 964.553C2372.34 969.088 2383.76 977.564 2394.65 985.651C2398.78 988.717 2402.93 996.929 2401.54 1000.81C2400.08 1004.9 2391.89 1009.16 2386.83 1008.95C2360.17 1007.87 2333.32 1007.06 2307 1003.09C2220.38 990.037 2134.31 972.473 2047.34 962.864C1984.51 955.923 1920.58 957.937 1857.15 958.243C1844.92 958.302 1832.74 968.964 1820.54 974.734C1828.58 990.721 1844.36 988.648 1857.78 989.125C1976.04 993.324 2093.82 1003.6 2209.6 1027.9C2299.48 1046.78 2387.9 1072.2 2471.28 1112.42C2493.16 1122.98 2499.5 1139.92 2498.9 1162.45C2497.69 1208.31 2492.41 1214.1 2447.17 1214.19C2430.37 1214.22 2413.56 1213.48 2396.75 1213.27C2384.62 1213.11 2375.13 1207.87 2373.99 1195.68C2371.81 1172.39 2356.35 1161.33 2337.21 1156.06C2287.54 1142.4 2237.92 1127.41 2187.28 1118.72C2115.67 1106.43 2043.28 1098.2 1971.01 1090.23C1831.13 1074.81 1690.91 1062.21 1550.33 1079.54C1396.17 1098.54 1241.96 1117.58 1088.45 1141.06C1036.24 1149.04 985.864 1169.84 935.131 1186.28C916.587 1192.28 901.546 1204.07 894.276 1224.45C892.337 1229.88 882.051 1235.11 875.272 1235.56C850.586 1237.21 825.656 1238.4 801.016 1236.77C768.193 1234.59 752.94 1203.16 772.321 1176.15C781.223 1163.75 795.814 1154.24 809.624 1146.73C936.436 1077.73 1075.18 1046.28 1215.35 1019.88C1256.21 1012.19 1297.57 1007.15 1338.61 1000.37C1349.58 998.562 1360.66 995.836 1370.86 991.557C1376.31 989.27 1380.01 982.781 1384.49 978.188C1379.25 974.63 1374.07 968.149 1368.74 968.02C1345.94 967.469 1323.07 968.199 1300.28 969.531C1196.05 975.626 1095.95 1004.47 994.182 1024.42C939.769 1035.09 889.106 1054.11 838.616 1075.19C834.032 1077.11 829.371 1078.89 824.633 1080.37C778.815 1094.73 760.829 1083.62 748.83 1038.93C731.465 974.254 706.36 911.632 684.057 848.31C659.491 778.56 634.538 708.945 609.401 639.398C596.115 602.638 573.051 573.423 540.794 550.973C530.783 544.006 521.943 534.56 514.569 524.746C488.385 489.897 491.501 445.874 521.305 415.863C552.84 384.108 592.282 380.452 629.527 406.153C648.909 419.527 665.342 435.904 671.01 459.498C676.7 483.18 668.951 504.043 651.727 520.734C636.841 535.157 637.322 549.164 648.695 565.32C678.768 608.042 706.504 652.543 738.559 693.697C773.343 738.356 820.451 768.368 873.601 786.948C905.35 798.047 938.757 796.549 970.761 784.776C1022.96 765.575 1038.01 722.322 1041.94 672.42C1042.86 660.649 1041.86 648.725 1042.81 636.957C1045.42 604.549 1037.66 579.614 1008.14 559.02C981.589 540.501 964.549 510.247 976.445 475.721C987.933 442.379 1013.4 421.631 1049.56 416.965C1077.68 413.339 1112.4 435.298 1129.11 466.448C1142.83 492.008 1138.68 523.153 1118.53 545.95C1092.27 575.65 1091.95 579.036 1111.48 612.535C1127.15 639.395 1141.72 666.955 1158.55 693.061C1182.93 730.884 1219.52 748.932 1263.75 751.176C1305.5 753.294 1348.78 756.954 1383.69 728.291C1407.52 708.733 1428.41 685.274 1448.9 662.043C1508.29 594.68 1536.08 512.041 1557.74 427.256C1572.03 371.29 1582.45 314.333 1594.59 257.82C1598.78 238.331 1592.51 225.063 1574.29 214.914C1538.6 195.025 1517.4 165.473 1520.15 122.354C1522.69 82.6484 1569.43 26.0559 1608.44 18.0658C1637.52 12.1095 1661.28 24.6866 1679.18 46.4773C1721.83 98.4124 1722.12 163.505 1671.74 206.369C1653.88 221.557 1648.48 239.411 1654.82 263.015C1673.19 331.379 1688.68 400.533 1707.79 468.674C1715.45 495.976 1729.65 521.445 1741.46 549.014ZM804.832 896.9C820.967 928.429 836.9 960.064 853.339 991.433C859.762 1003.69 868.896 1007.12 882.738 1000.82C968.656 961.712 1059.16 937.049 1151.51 919.411C1206.97 908.818 1263.31 902.914 1318.88 892.839C1450.37 869.001 1525.77 782.543 1570.17 663.193C1575.24 649.566 1575.18 634.032 1577.5 619.382C1574.9 618.515 1572.3 617.648 1569.7 616.781C1562.13 629.049 1554.06 641.037 1547.09 653.634C1516.97 708.052 1481.64 757.689 1428.42 792.608C1333.89 854.636 1208.48 866.6 1117.14 790.798C1106.93 782.328 1099.8 784.821 1090.22 793.767C1067.26 815.216 1045.23 839.785 1018.1 854.221C959.596 885.348 896.505 885.952 833.236 867.269C820.548 863.522 807.889 859.672 790.866 854.565C796.202 870.983 799.979 882.605 804.832 896.9Z" fill="#BB9629"/>
<path d="M2828.1 2380.3C2919.5 2430.87 3001.5 2492.51 3080.98 2557.65C3125.94 2594.5 3158.79 2641.35 3187.14 2691.44C3210.7 2733.06 3236.68 2773.92 3244.16 2822.43C3252.97 2879.54 3265.08 2936.6 3267.62 2994.05C3269.58 3038.67 3259.37 3083.89 3253.73 3128.74C3252.92 3135.2 3247.37 3141.08 3244.02 3147.23C3241.96 3147.27 3239.9 3147.31 3237.85 3147.36C3233.31 3134.35 3227.21 3121.65 3224.52 3108.27C3214 3055.82 3206.87 3001.91 3179.2 2955.24C3154.56 2913.67 3125.56 2874.63 3097.33 2835.29C3090.54 2825.84 3079.19 2819.65 3069.93 2811.97C3067.98 2813.1 3066.04 2814.23 3064.09 2815.37C3065.92 2823.77 3066.84 2832.5 3069.73 2840.51C3083.68 2879.1 3100.08 2916.9 3111.98 2956.08C3129.95 3015.24 3135.16 3076.59 3139.2 3138.2C3146.45 3248.93 3134.53 3357.07 3096.92 3461.38C3083.1 3499.71 3061.95 3535.41 3043.72 3572.11C3040.73 3578.12 3036 3583.43 3031.36 3588.41C3016.83 3603.98 3000.23 3600.43 2996.38 3579.33C2993.66 3564.45 2994.88 3548.34 2997.08 3533.18C3005.45 3475.55 2997.62 3419.1 2987.25 3362.63C2965.84 3245.99 2908.43 3145.9 2842.18 3050.37C2793.29 2979.87 2741.35 2911.48 2691.04 2841.96C2655.99 2793.52 2631.72 2739.98 2617.44 2681.95C2615.86 2675.55 2615.92 2668.75 2614.59 2656.12C2624.82 2663.58 2632.04 2666.9 2636.57 2672.44C2707.96 2759.68 2797.27 2828.13 2879.05 2904.46C2913.37 2936.49 2942.44 2972.4 2965.14 3013.99C2979.6 3040.48 2999.06 3064.24 3018.23 3088.35C3018.44 3046.41 3011.13 3006.66 2994.03 2968.58C2951.08 2872.94 2889.29 2791.01 2813.67 2719.1C2742.79 2651.7 2680.77 2577.62 2639.34 2488.12C2633.99 2476.58 2631.7 2463.63 2628 2451.34C2629.67 2450.87 2631.33 2450.41 2633 2449.95C2686.71 2486.92 2739.2 2525.85 2794.47 2560.33C2850.11 2595.06 2908.51 2625.37 2970.74 2660.46C2964.74 2646.49 2962.5 2634.3 2955.52 2626.19C2917.88 2582.42 2881.7 2536.89 2840.03 2497.21C2780.63 2440.66 2716.68 2388.92 2655.26 2334.45C2645.22 2325.55 2637.47 2313.68 2630.24 2302.2C2627.53 2297.89 2629.31 2290.75 2629.04 2284.9C2634.39 2284.78 2640.66 2282.77 2644.95 2284.84C2675.71 2299.72 2706.23 2315.12 2736.5 2330.97C2766.82 2346.84 2796.76 2363.42 2828.1 2380.3Z" fill="#BB9629"/>
<path d="M683.56 2480.83C677.004 2503.94 672.456 2527.86 663.518 2550.02C635.633 2619.12 590.472 2676.68 540.393 2731.12C491.582 2784.19 442.277 2837.1 397.544 2893.54C346.903 2957.42 325.933 3034.91 310.921 3113.72C308.819 3124.76 310.631 3136.54 310.631 3147.98C313.265 3148.76 315.899 3149.54 318.533 3150.32C323.63 3142.65 330.043 3135.54 333.619 3127.21C366.022 3051.73 413.645 2987.46 471.989 2929.83C529.079 2873.43 584.567 2815.27 638.289 2755.66C661.37 2730.06 678.189 2698.81 697.914 2670.17C703.214 2662.47 708.741 2654.93 715.596 2645.31C729.471 2665.57 728.2 2684.57 722.179 2700.67C704.151 2748.89 688.796 2799.35 662.476 2842.95C612.726 2925.37 555.615 3003.31 502.365 3083.64C434.022 3186.74 381.933 3297.64 357.832 3419.21C348.908 3464.22 353.496 3512.01 352.922 3558.54C352.646 3580.89 356.183 3603.34 354.954 3625.57C354.474 3634.26 345.654 3642.48 340.633 3650.92C333.018 3645.61 322.915 3641.95 318.169 3634.75C264.85 3553.89 237.165 3463.81 219.954 3369.08C198.735 3252.29 200.794 3136.95 224.891 3020.81C234.177 2976.06 242.369 2932 264.729 2891.53C269.604 2882.7 269.937 2871.37 272.362 2861.19C270.549 2860.08 268.736 2858.97 266.923 2857.86C260.469 2861.89 252.453 2864.62 247.844 2870.18C231.233 2890.21 213.02 2909.65 200.471 2932.14C177.19 2973.86 154.655 3016.47 137.25 3060.84C125.447 3090.92 122.997 3124.66 116.224 3156.74C114.051 3167.04 112.395 3177.59 108.772 3187.39C104.113 3199.99 94.3253 3201.54 86.79 3190.54C81.3124 3182.54 76.7446 3172.85 75.2214 3163.37C40.6038 2947.77 95.2069 2759.16 252.813 2606.03C339.109 2522.17 436.89 2452.28 543.871 2395.57C583.293 2374.67 619.053 2346.94 656.996 2323.14C669.444 2315.33 683.509 2310.11 696.835 2303.7C698.737 2305.96 700.639 2308.23 702.541 2310.49C697.414 2319.61 693.996 2330.43 686.884 2337.58C638.645 2386.06 591.329 2435.66 540.437 2481.25C473.299 2541.38 413.584 2607.7 360.233 2680C353.994 2688.46 350.647 2699.05 345.959 2708.64C347.374 2709.93 348.789 2711.22 350.203 2712.51C357.641 2708.85 365.421 2705.75 372.463 2701.44C427.122 2668.02 483.017 2636.37 535.742 2600.12C574.456 2573.5 608.957 2540.76 645.34 2510.75C657.273 2500.9 669.221 2491.08 682.42 2481.07C683.679 2480.9 683.56 2480.83 683.56 2480.83Z" fill="#BB9629"/>
<path d="M577.326 3608.05C562.372 3714.56 570.654 3817.26 614.135 3916.53C611.107 3917.72 608.078 3918.92 605.05 3920.12C596.747 3914.43 587.411 3909.79 580.314 3902.86C544.6 3868 522.074 3825.15 500.568 3780.26C462.804 3701.45 442.43 3618.59 437.123 3532.74C434.447 3489.45 442.952 3444.92 450.473 3401.66C466.581 3309.01 514.378 3229.83 562.392 3151.07C603.509 3083.62 644.683 3016.21 686.058 2948.92C692.057 2939.17 699.323 2930.19 706.003 2920.86C708.205 2921.05 710.406 2921.25 712.607 2921.45C715.695 2932.18 720.818 2942.78 721.513 2953.67C724.272 2996.87 711.421 3036.98 696.01 3076.77C662.123 3164.26 628.599 3251.91 596.48 3340.05C588.937 3360.76 586.949 3383.62 583.694 3405.67C582.614 3412.99 585.571 3420.91 586.682 3428.55C588.269 3428.97 589.857 3429.39 591.444 3429.81C595.063 3424.68 599.357 3419.88 602.198 3414.35C634.276 3351.83 667.295 3289.76 697.523 3226.36C711.341 3197.38 719.225 3165.6 730.526 3135.36C733.163 3128.31 738.756 3122.35 742.988 3115.89C749.696 3120.86 758.364 3124.5 762.77 3131.01C781.656 3158.95 790.859 3190.33 792.13 3224.07C794.869 3296.79 775.703 3365.5 755.542 3434.36C744.583 3471.79 736.641 3510.3 730.167 3548.79C724.961 3579.75 732.389 3610.05 744.327 3644.84C750.145 3635.08 753.725 3629.82 756.564 3624.19C783.136 3571.47 811.745 3519.64 835.351 3465.62C852.89 3425.49 863.974 3382.52 877.782 3340.77C887.863 3310.28 897.698 3279.72 907.642 3249.19C909.567 3249.06 911.491 3248.94 913.416 3248.81C917.898 3260.63 922.853 3272.3 926.789 3284.3C960.101 3385.87 940.261 3481.09 895.631 3575.02C861.408 3647.04 835.419 3722.94 824.752 3802.17C811.438 3901.04 828.316 3995.48 880.564 4082.19C889.275 4096.64 896.224 4112.16 903.987 4127.19C902.354 4128.78 900.721 4130.37 899.089 4131.96C892.512 4129.97 884.605 4129.66 879.583 4125.7C854.351 4105.79 827.249 4087.34 805.655 4063.91C753.997 4007.86 722.246 3939.35 691.396 3870.44C651.008 3780.23 622.733 3686.68 608.159 3588.9C606.911 3580.53 601.564 3572.76 597.405 3563.04C579.374 3575.4 580.431 3591.74 577.326 3608.05Z" fill="#BB9629"/>
<path d="M2573.85 4016.09C2549.99 4042.23 2527.99 4068.44 2503.24 4091.71C2495.21 4099.26 2479.96 4099.12 2468.02 4102.49C2471.58 4091.95 2473.33 4080.3 2478.97 4071.03C2525.53 3994.44 2551.27 3911.18 2542.82 3822.21C2537.53 3766.53 2521.7 3711 2504.02 3657.59C2484.76 3599.38 2458.52 3543.42 2434.16 3486.98C2400.1 3408.03 2395.75 3328.23 2424.56 3247.04C2427.74 3238.09 2433.23 3229.97 2439.36 3218.18C2473.33 3287.5 2474.34 3363.29 2512.3 3426.94C2548.95 3488.41 2580.91 3552.68 2614.92 3615.72C2617.05 3615.85 2619.18 3615.98 2621.3 3616.12C2624.54 3604.35 2629.55 3592.76 2630.71 3580.8C2635.36 3532.71 2622.87 3487.35 2608.9 3441.79C2591.45 3384.89 2572.87 3327.76 2562.9 3269.34C2555.91 3228.43 2562.29 3185.19 2563.32 3143C2563.48 3136.41 2565.23 3128.48 2569.25 3123.66C2577.27 3114.04 2587.36 3106.15 2596.6 3097.54C2602.69 3106.28 2611.5 3114.2 2614.46 3123.9C2639.41 3205.87 2688.36 3275.75 2727.63 3350.47C2732.49 3359.72 2741.1 3367 2747.97 3375.2C2750.59 3374.51 2753.21 3373.82 2755.83 3373.14C2756.18 3359.08 2758.8 3344.6 2756.35 3331.04C2752.62 3310.4 2746.43 3290.01 2739.39 3270.18C2727.33 3236.24 2713.93 3202.77 2700.82 3169.21C2695.85 3156.47 2692.12 3142.62 2684.41 3131.7C2643.19 3073.38 2632.28 3003.11 2607.09 2938.53C2598.76 2917.17 2596.42 2894.04 2607.35 2866.54C2616.51 2876.54 2624.84 2883.43 2630.41 2892.09C2659.35 2937.06 2687.34 2982.63 2716.11 3027.71C2760.91 3097.94 2808.28 3166.65 2850.48 3238.4C2894.68 3313.57 2919.79 3396.61 2917.36 3483.96C2913.8 3611.88 2877.27 3731.23 2806.72 3839.06C2799.61 3849.93 2791.11 3860.11 2782 3869.36C2777.82 3873.61 2770.58 3874.86 2764.73 3877.46C2763.5 3871.18 2760.32 3864.53 2761.39 3858.66C2766.41 3831.16 2773.14 3803.97 2778.28 3776.48C2789.78 3714.95 2792.93 3652.92 2783.52 3590.96C2780.7 3572.44 2771.29 3554.92 2760.78 3537.2C2756.07 3561.23 2752.98 3585.73 2746.37 3609.23C2716.09 3716.99 2686.47 3825.22 2634.65 3925.17C2618.18 3956.95 2594.84 3985.17 2573.85 4016.09Z" fill="#BB9629"/>
<path d="M1444.76 3696.31C1439.99 3680.27 1435.69 3665.67 1430.73 3648.85C1392.19 3684.22 1419.48 3726.09 1414.88 3762.14C1411.14 3763.2 1409.8 3764.1 1408.9 3763.77C1338.45 3737.9 1290.61 3651.16 1313.26 3581.21C1320.73 3558.15 1339.75 3534.14 1360.17 3520.84C1423.1 3479.86 1486.65 3438.06 1554.79 3407.29C1649.99 3364.29 1748.38 3365.95 1842.21 3417.59C1899.38 3449.05 1957.27 3479.82 2004.37 3526.37C2063.26 3584.56 2067.34 3637.48 2016.78 3703.09C1999.1 3726.03 1979.28 3747.57 1946.69 3763.95C1948.71 3743.78 1950.67 3728.2 1951.72 3712.56C1953.01 3693.48 1953.94 3674.36 1954.09 3655.25C1954.13 3650 1951.94 3643.85 1948.73 3639.7C1945.27 3635.23 1939.05 3629.55 1934.69 3630.05C1930.18 3630.58 1924.82 3637.24 1922.75 3642.39C1919.57 3650.33 1918.05 3659.19 1917.25 3667.79C1912.51 3718.92 1891.3 3763.32 1862.34 3804.67C1860.91 3806.71 1859.85 3809.38 1857.89 3810.61C1849.81 3815.69 1841.45 3820.33 1833.19 3825.13C1831.06 3816.54 1826.84 3807.87 1827.16 3799.38C1828.54 3763.21 1828.34 3727.47 1812.1 3689.12C1808.66 3697.67 1806.14 3702.77 1804.53 3708.14C1785.2 3772.59 1754.99 3831.51 1714.33 3885.02C1694.66 3910.91 1676.18 3913.34 1654.06 3889.63C1621.63 3854.87 1596.25 3815.02 1579.94 3769.95C1567.94 3736.76 1556.13 3703.51 1540.58 3670.29C1540.02 3675.23 1538.88 3680.18 1539 3685.11C1539.96 3724.26 1541.58 3763.41 1541.94 3802.56C1542 3809.82 1539.14 3819.35 1534.08 3823.57C1531.03 3826.12 1518.66 3822.6 1514.73 3818.1C1498.16 3799.16 1480.93 3780.15 1468.33 3758.6C1457.53 3740.13 1452.7 3718.16 1444.76 3696.31Z" fill="#BB9629"/>
<path d="M1560.85 1583.93C1561.04 1601.5 1561.78 1617.57 1561.93 1633.65C1561.99 1640.42 1561.91 1647.54 1559.96 1653.91C1556.14 1666.39 1547.7 1670.94 1538.53 1659.47C1527.35 1645.49 1517.43 1630.34 1508.31 1614.9C1481.45 1569.45 1459.56 1520.33 1427.84 1478.65C1373.33 1407.06 1306 1347.54 1229.48 1299.45C1204.31 1283.63 1176.87 1271.42 1151.76 1255.52C1141.58 1249.07 1134.84 1237.17 1126.53 1227.75C1127.56 1226.04 1128.58 1224.32 1129.61 1222.6C1135.25 1222.97 1141.02 1222.74 1146.53 1223.81C1179.39 1230.18 1211.94 1238.74 1245.05 1243.05C1313.24 1251.93 1374.24 1277.98 1431.17 1315.23C1438.22 1319.84 1445.73 1323.73 1457.03 1330.28C1455.39 1307.26 1447.3 1291.83 1436.37 1277.81C1423.76 1261.63 1409.68 1246.54 1397.67 1229.94C1393.52 1224.21 1393.65 1215.39 1391.82 1207.98C1399.24 1207.08 1407.38 1203.73 1413.97 1205.66C1471.07 1222.41 1513.74 1259.83 1551.36 1304.02C1582.8 1340.97 1606.42 1381.98 1619.56 1429.18C1622.73 1440.55 1632.85 1449.98 1639.78 1460.31C1646.09 1450.15 1654.43 1440.73 1658.39 1429.73C1687.48 1348.75 1732.95 1279.47 1801.94 1227.07C1824.03 1210.29 1847.49 1194.87 1883.78 1191.48C1876.79 1206.66 1872.58 1218.1 1866.53 1228.48C1853.12 1251.52 1838.43 1273.82 1825.06 1296.88C1821.61 1302.83 1821.08 1310.47 1822.85 1320.12C1827.73 1317.05 1832.94 1314.41 1837.44 1310.86C1903.72 1258.5 1979.33 1230.22 2062.96 1220.63C2082.95 1218.34 2102.1 1209.21 2121.81 1203.85C2131.98 1201.08 2142.53 1199.68 2152.91 1197.66C2154.36 1199.97 2155.81 1202.28 2157.26 1204.59C2147.54 1215.97 2139.22 1229.06 2127.78 1238.31C2111.43 1251.53 2093.11 1262.43 2075.1 1273.46C1944.25 1353.66 1843.04 1459.67 1784.41 1603.63C1776.31 1623.53 1763.72 1641.72 1752.04 1659.94C1749.25 1664.3 1739.79 1669.18 1736.85 1667.56C1732.01 1664.89 1727.39 1657.18 1727.26 1651.48C1726.82 1632.89 1729.09 1614.24 1729 1595.62C1728.96 1586.98 1725.87 1578.35 1724.16 1569.72C1721.49 1569.15 1718.82 1568.57 1716.15 1568C1710.86 1578.21 1703.7 1587.89 1700.62 1598.72C1687.56 1644.74 1675.9 1691.16 1663.24 1737.3C1661.14 1744.96 1657.51 1752.6 1652.88 1759.02C1650.03 1762.97 1644.04 1766.35 1639.28 1766.59C1636.64 1766.72 1632.13 1760.28 1631.04 1756.12C1618.9 1709.94 1607.2 1663.65 1595.54 1617.35C1592.5 1605.32 1591.11 1592.74 1586.8 1581.21C1584.52 1575.1 1577.62 1570.72 1572.8 1565.56C1568.92 1571.18 1565.04 1576.8 1560.85 1583.93Z" fill="#BB9629"/>
<path d="M2124.78 4247.07C2097.68 4277.17 2071.76 4306.55 2045.09 4335.23C2040.63 4340.03 2032.88 4341.76 2026.65 4344.91C2024.83 4338.61 2021.36 4332.28 2021.43 4326.01C2022.28 4256.48 2015.2 4186.54 2032.08 4117.81C2043.97 4069.38 2058.53 4022.51 2084.54 3978.91C2122.49 3915.3 2155.85 3849.15 2172.27 3775.9C2174.26 3766.98 2178.27 3757.93 2183.57 3750.53C2187.49 3745.05 2195.47 3738.49 2200.81 3739.15C2206.1 3739.8 2213.63 3748.42 2214.5 3754.38C2220.13 3792.88 2226.17 3831.52 2228.06 3870.31C2229.26 3894.84 2223.16 3919.69 2221.04 3944.45C2220.42 3951.6 2222.24 3958.96 2222.95 3966.22C2224.75 3967.24 2226.54 3968.26 2228.34 3969.27C2236.13 3959.9 2245.97 3951.56 2251.39 3940.97C2299.97 3846.13 2326.65 3746.86 2315.18 3638.81C2310.99 3599.39 2312.74 3559.23 2313.67 3519.45C2313.98 3506.01 2320.11 3492.7 2323.58 3479.33C2325.73 3479.05 2327.88 3478.76 2330.04 3478.47C2336.89 3487.56 2345.38 3495.83 2350.33 3505.86C2393.24 3592.89 2426.68 3682.58 2428.67 3781.49C2429.95 3845.01 2407.04 3901.89 2384.37 3959.21C2347.17 4053.26 2281.4 4123.62 2201.88 4183.24C2175.56 4202.97 2151.05 4225.09 2124.78 4247.07Z" fill="#BB9629"/>
<path d="M1289.99 4000.8C1357.6 4108.72 1377.14 4225.55 1363.68 4349.17C1363.05 4355 1357.64 4360.31 1354.45 4365.87C1348.81 4362.62 1341.89 4360.52 1337.78 4355.91C1325.81 4342.49 1315.15 4327.91 1303.64 4314.05C1257.79 4258.84 1198.59 4219.4 1142.32 4176.24C1037.5 4095.84 972.264 3989.16 943.677 3860.87C937.583 3833.52 942.95 3803.78 941.325 3775.24C936.037 3682.35 974.294 3602.32 1014.75 3522.9C1017.63 3517.24 1023.29 3512.98 1031.48 3503.77C1034.65 3519.82 1038.5 3530.91 1038.71 3542.06C1039.25 3570.05 1039.6 3598.18 1037.43 3626.05C1031.19 3706.31 1042.31 3783.61 1073.48 3857.89C1087.65 3891.66 1101.01 3925.84 1117.11 3958.67C1123.37 3971.44 1136.16 3981.01 1145.98 3992.03C1148.49 3990.82 1151 3989.61 1153.52 3988.41C1153.03 3978.42 1153.87 3968.16 1151.83 3958.5C1141.92 3911.6 1130.79 3864.8 1136.52 3816.37C1138.55 3799.24 1142.54 3782.17 1147.6 3765.68C1149.18 3760.55 1156.96 3754.91 1162.45 3754.26C1166.13 3753.83 1172.72 3761.04 1174.69 3766.12C1181.85 3784.66 1185.34 3804.91 1194.34 3822.39C1225.02 3881.98 1257.44 3940.67 1289.99 4000.8Z" fill="#BB9629"/>
<path d="M2532.78 1520.18C2478.09 1566.26 2429.67 1618.28 2366.54 1651.37C2308.83 1681.62 2249.34 1706.65 2182.22 1704.37C2174.75 1704.11 2167.35 1701.96 2154.4 1699.74C2212.47 1661.48 2268.93 1630.93 2317.21 1590.61C2365.35 1550.41 2405.29 1500.42 2447.26 1452.52C2422.28 1450.47 2402.22 1462.33 2383.61 1473.87C2317.55 1514.83 2253.5 1559.08 2187 1599.29C2145.1 1624.61 2100.52 1645.63 2056.41 1667.08C2044.32 1672.97 2027.13 1680.39 2017.2 1665.3C2007.27 1650.21 2020.98 1637.93 2031.06 1628.58C2093.93 1570.26 2151.49 1505.87 2223.87 1458.31C2313.11 1399.67 2408.24 1354.6 2514.26 1336.42C2611.26 1319.79 2705.38 1325.91 2791.81 1379.3C2801.79 1385.48 2811.95 1391.96 2820.2 1400.14C2824.84 1404.74 2825.72 1413.12 2828.3 1419.8C2821.72 1422.13 2815.3 1425.69 2808.53 1426.61C2767.4 1432.18 2725.95 1435.72 2685.07 1442.67C2627.07 1452.53 2577.79 1481.06 2532.78 1520.18Z" fill="#BB9629"/>
<path d="M2778.94 1804.58C2754.57 1802.14 2731.62 1800.66 2708.92 1797.48C2699.75 1796.2 2691.1 1791.2 2682.22 1787.9C2681.46 1785.45 2680.7 1782.99 2679.94 1780.54C2695.37 1769 2709.58 1755.07 2726.49 1746.42C2761.84 1728.34 2800.16 1725.62 2839.25 1731.68C2849.43 1733.26 2859.82 1733.52 2873.16 1734.64C2868.91 1710.34 2858.38 1693.93 2840.88 1681.98C2791.17 1648.02 2736.74 1646.18 2679.79 1657.4C2608.62 1671.42 2545.45 1705.29 2480.64 1735.23C2463.26 1743.25 2446.04 1751.62 2428.74 1759.83C2427.15 1758.61 2425.56 1757.38 2423.96 1756.15C2427.2 1749 2428.62 1739.86 2433.94 1735.01C2492.73 1681.51 2550.24 1626.33 2612.1 1576.59C2646.22 1549.15 2688.53 1532.78 2733.49 1527.29C2784.34 1521.08 2831.09 1532.41 2873.84 1560.19C2916.74 1588.06 2959 1616.81 2985.65 1662.44C3014.84 1712.41 3014.34 1767.08 3002.6 1820.16C2986.78 1891.7 2955.07 1957.49 2910.88 2016.41C2901.73 2028.62 2888.82 2038.12 2877.1 2048.25C2863.94 2059.62 2852.62 2055.19 2844.84 2041.65C2829.06 2014.18 2813.71 1986.43 2798.96 1958.4C2790.8 1942.88 2784.2 1926.55 2776.89 1910.58C2778.79 1908.91 2780.7 1907.24 2782.6 1905.57C2795.18 1912.36 2807.61 1919.42 2820.35 1925.88C2841.66 1936.7 2849.78 1931.63 2850.57 1907.5C2852.39 1851.61 2832.66 1822.72 2778.94 1804.58Z" fill="#BB9629"/>
<path d="M1033.58 1578.06C987.988 1549.92 944.082 1521.54 898.716 1495.72C882.08 1486.25 861.986 1482.86 841.509 1480.1C883.528 1529.28 926.329 1576.98 977.374 1614.67C1027.97 1652.02 1083.63 1682.51 1141.71 1718.93C1129.25 1722.18 1120.46 1725.99 1111.47 1726.58C1061.01 1729.9 1014.87 1713.84 968.85 1695.38C898.095 1667.01 840.403 1619.82 784.44 1570.26C699.263 1494.83 599.574 1463.42 487.121 1467.89C477.083 1468.29 466.947 1466.24 456.856 1465.33C455.705 1462.93 454.555 1460.52 453.404 1458.12C464.414 1448.34 474.256 1436.65 486.615 1429.06C601.673 1358.43 723.957 1348.65 852.942 1383.38C974.376 1416.08 1077.94 1478.44 1169.35 1563.09C1196.74 1588.46 1224.54 1613.41 1251.49 1639.23C1262.55 1649.82 1278.34 1663.31 1268.41 1678.68C1258.68 1693.73 1239.73 1685.86 1225.79 1679.62C1159.95 1650.13 1093.25 1622.15 1033.58 1578.06Z" fill="#BB9629"/>
<path d="M653.241 2061.83C709.452 2009.93 760.229 1953.63 825.544 1914.55C852.74 1898.28 880.587 1883 908.817 1868.6C927.892 1858.87 948.362 1854.11 970.244 1859.72C984.949 1863.49 985.65 1870.58 976.358 1880.49C970.86 1886.35 965.015 1892.26 958.304 1896.55C869.271 1953.49 796.378 2028.41 726.819 2106.56C656.971 2185.05 576.097 2249.37 485.646 2301.9C400.006 2351.64 314.313 2401.8 241.429 2469.28C193.705 2513.46 151.879 2564.02 107.453 2611.76C104.493 2614.94 102.542 2619.77 98.9827 2621.53C91.6494 2625.15 82.1082 2630.98 76.1945 2628.74C71.1015 2626.81 66.3482 2614.4 67.4122 2607.54C71.2159 2583.05 75.3956 2558.21 83.3192 2534.82C115.767 2439.03 152.672 2344.85 221.373 2268.3C243.327 2243.84 272.933 2226.12 299.734 2206.25C305.582 2201.91 314.408 2201.59 322.852 2199.14C327.815 2217.48 317.369 2227.18 308.614 2237.07C294.609 2252.89 279.154 2267.49 265.928 2283.91C258.757 2292.81 254.927 2304.4 252.473 2318.54C259.189 2315.32 265.987 2312.27 272.607 2308.87C317.955 2285.6 362.503 2260.59 408.75 2239.27C501.746 2196.39 579.948 2133.78 653.241 2061.83Z" fill="#BB9629"/>
<path d="M442.325 1735.55C437.772 1746.72 434.016 1756.78 430.261 1766.83C441.505 1767.52 453.21 1770.56 463.91 1768.46C502.47 1760.91 538.419 1767.73 571.713 1786.9C584.554 1794.3 594.623 1806.5 605.954 1816.52C605.325 1818.85 604.695 1821.19 604.065 1823.52C586.988 1827.01 569.87 1830.3 552.848 1834.03C539.516 1836.95 525.987 1839.48 513.093 1843.81C455.184 1863.26 440.51 1909.85 445.299 1964.11C447.029 1983.72 457.362 1986.64 473.084 1974.68C482.666 1967.39 492.18 1960.01 501.724 1952.67C503.253 1953.62 504.783 1954.56 506.313 1955.51C505.52 1961.22 505.762 1967.31 503.77 1972.56C488.784 2012.06 474.523 2051.9 457.631 2090.58C447.519 2113.73 435.27 2113.48 419.633 2092.75C384.36 2045.99 349.765 1998.43 329.287 1943.15C315.521 1905.99 304.494 1867.44 296.451 1828.63C287.079 1783.42 299.084 1739.71 323.145 1701.73C364.728 1636.09 420.895 1586.99 499.783 1571.82C563.616 1559.54 625.021 1571.87 678.156 1608.08C722.093 1638.02 761.252 1675.02 802.181 1709.3C819.813 1724.07 836.939 1739.5 853.544 1755.41C860.242 1761.83 864.933 1770.35 870.537 1777.91C869.206 1779.76 867.875 1781.62 866.545 1783.47C856.072 1779.48 845.531 1775.66 835.137 1771.47C779.308 1748.99 724.659 1722.75 667.396 1704.87C608.013 1686.33 545.861 1683.66 485.88 1705.92C470.251 1711.71 457.302 1724.74 442.325 1735.55Z" fill="#BB9629"/>
<path d="M3027.34 2379.14C2958.9 2326.48 2884.99 2285.02 2809.84 2246.18C2728.26 2204.01 2655.3 2150.71 2590.33 2086.44C2512.83 2009.77 2433.97 1934.79 2346.42 1869.43C2337.34 1862.66 2330.24 1853.23 2321.71 1844.51C2335.97 1830.5 2351.64 1831.83 2363.91 1837.01C2396.99 1850.97 2429.82 1866.13 2460.98 1883.91C2532.57 1924.76 2598.36 1973.86 2658.77 2030.04C2755.87 2120.36 2865.03 2191.85 2987.57 2243.17C3013.79 2254.14 3037.68 2270.64 3062.74 2284.42C3069.16 2287.95 3075.94 2290.85 3086.59 2295.98C3083.71 2268.21 3070.51 2250.76 3054.13 2234.6C3042.68 2223.3 3030.82 2212.05 3021.49 2199.09C3016.13 2191.64 3015.46 2180.81 3011.57 2167.77C3051.9 2174.9 3077.6 2196.02 3099.07 2220.66C3171.65 2303.94 3228.79 2395.53 3243.31 2508.17C3244.98 2521.08 3246.84 2534.08 3246.83 2547.04C3246.83 2552.27 3243.25 2559.39 3239.03 2562.07C3236.2 2563.86 3228.24 2560.62 3224.54 2557.39C3214.27 2548.39 3204.57 2538.63 3195.43 2528.46C3145.32 2472.67 3089.83 2422.98 3027.34 2379.14Z" fill="#BB9629"/>
<path d="M1931.96 4095.19C1895.36 4155.3 1859.32 4214.11 1823.16 4272.86C1787.7 4330.48 1745.57 4384.33 1724.08 4449.82C1719.06 4465.14 1714.12 4480.72 1706.88 4495.04C1697.73 4513.14 1687.36 4512.98 1677.97 4494.98C1669.36 4478.48 1661.1 4461.53 1655.18 4443.93C1634.4 4382.09 1597.16 4330.67 1557.97 4279.47C1517.61 4226.74 1481.18 4170.9 1444.79 4115.28C1420.95 4078.84 1421.45 4036.17 1420.63 3994.42C1420.57 3991.44 1421.86 3988.36 1422.89 3985.45C1423.45 3983.86 1424.78 3982.54 1426.91 3979.43C1433.28 3985.01 1439.73 3989.67 1444.99 3995.42C1492.01 4046.84 1541.01 4096.67 1584.93 4150.63C1614.92 4187.46 1637.75 4230.13 1663.72 4270.21C1666.77 4274.91 1669.05 4280.15 1672.47 4284.53C1682.14 4296.92 1691.86 4296.91 1700.64 4283.72C1710.97 4268.21 1720.7 4252.25 1729.86 4236.02C1782.69 4142.44 1854.22 4063.83 1928.72 3987.66C1933.62 3982.65 1942.29 3981.33 1949.21 3978.29C1951.73 3987.62 1957.93 3997.75 1956.11 4006.14C1949.72 4035.7 1940.57 4064.67 1931.96 4095.19Z" fill="#BB9629"/>
<path d="M1039.59 1370.39C1027.72 1359.05 1016.88 1348.56 1002.64 1334.77C1032.7 1324.17 1057.75 1325.8 1082.75 1328.48C1212.94 1342.48 1295.74 1420.72 1354.95 1530.36C1370.59 1559.33 1385 1588.99 1399.54 1618.54C1403.62 1626.82 1407.42 1635.62 1409.04 1644.61C1410.33 1651.77 1408.1 1659.56 1407.44 1667.08C1399.87 1665.17 1390.79 1665.27 1385.03 1660.95C1369.69 1649.44 1354.93 1636.86 1341.44 1623.22C1251.28 1531.98 1157.48 1445.13 1048.01 1376.92C1045.38 1375.28 1043.08 1373.14 1039.59 1370.39Z" fill="#BB9629"/>
<path d="M2025.78 1528.84C1991.33 1565.63 1957.86 1601.52 1924.37 1637.42C1920.56 1641.51 1917.27 1646.41 1912.75 1649.46C1905.87 1654.12 1898.13 1657.48 1890.75 1661.4C1887.29 1653.13 1881.69 1645.04 1880.95 1636.53C1880.18 1627.68 1882.29 1617.54 1886.23 1609.48C1918.74 1543.14 1950.6 1477.04 1999.7 1419.79C2056.61 1353.45 2128.24 1320.38 2211.93 1307.29C2232.91 1304.02 2253.68 1301.49 2277.68 1315.89C2261.82 1330.51 2248.8 1345.36 2233.13 1356.47C2159.9 1408.36 2091.39 1465.78 2025.78 1528.84Z" fill="#BB9629"/>
<path d="M1003.45 2905.01C1007.55 2916.21 1012.4 2925.96 1013.92 2936.19C1014.87 2942.52 1012.65 2953.27 1008.45 2955.44C1002.66 2958.43 991.081 2958.11 986.502 2954.08C971.267 2940.66 956.733 2925.97 944.332 2909.91C917.664 2875.38 895.382 2838.11 884.589 2795.25C882.963 2788.79 885.469 2781.29 886.063 2774.27C892.708 2776.22 900.634 2776.47 905.797 2780.37C948.867 2812.94 975.939 2858.3 1003.45 2905.01ZM962.193 2921.49C965.177 2924.65 967.893 2928.12 971.195 2930.9C980.177 2938.44 987.764 2954.9 1000.84 2945.44C1005.59 2942 1003.22 2921.04 997.58 2912.25C974.006 2875.51 948.513 2839.95 922.396 2804.94C916.45 2796.97 905.209 2792.95 896.405 2787.11C894.86 2788.27 893.314 2789.43 891.768 2790.59C895.299 2802.03 896.882 2814.6 902.722 2824.71C921.208 2856.71 941.285 2887.8 962.193 2921.49Z" fill="#BB9629"/>
<path d="M683.71 2480.96C683.741 2481.01 684.363 2480.1 684.363 2480.1C684.363 2480.1 684.116 2480.56 683.838 2480.69C683.56 2480.83 683.679 2480.9 683.71 2480.96Z" fill="#BB9629"/>
<path d="M961.47 2920.36C941.285 2887.8 921.207 2856.71 902.721 2824.71C896.881 2814.6 895.299 2802.03 891.768 2790.59C893.313 2789.43 894.859 2788.27 896.405 2787.11C905.208 2792.95 916.449 2796.97 922.395 2804.94C948.512 2839.95 974.006 2875.51 997.579 2912.25C1003.22 2921.04 1005.59 2942 1000.84 2945.44C987.763 2954.9 980.177 2938.44 971.195 2930.9C967.892 2928.12 965.176 2924.65 961.47 2920.36Z" fill="#BB9629"/>
<path d="M2128.22 2420.53C2091.08 2428.32 2058.98 2417.8 2029.19 2399.58C2020.67 2394.37 2011.78 2385.28 2009.19 2376.21C2006.79 2367.82 2010.06 2355.11 2015.6 2348.04C2019.7 2342.81 2031.93 2340.86 2039.71 2342.19C2062.1 2346.03 2083.85 2354.9 2106.28 2356.84C2127.74 2358.7 2145.86 2340.81 2147.94 2319.35C2149.29 2305.38 2154.99 2294.05 2168.19 2295.94C2177.62 2297.3 2189.31 2306.83 2193.59 2315.77C2207.51 2344.88 2196.8 2380.95 2169.46 2400.18C2157.46 2408.62 2143.02 2413.61 2128.22 2420.53Z" fill="#BB9629"/>
<path d="M1139.28 2312.14C1156.62 2306.33 1163.78 2315.85 1168.32 2328.73C1181.69 2366.64 1214.31 2379.81 1250.48 2361.35C1258.76 2357.12 1266.4 2351.62 1274.48 2346.97C1295.45 2334.88 1311.4 2343.97 1312.06 2368.3C1312.63 2389.57 1304.75 2405.45 1284.42 2414.59C1239.14 2434.96 1193.71 2445.74 1146.83 2419.54C1107.91 2397.79 1102.88 2337.33 1139.28 2312.14Z" fill="#BB9629"/>
</g>
<defs>
<clipPath id="clip0_166_26">
<rect width="3288" height="4521" fill="white"/>
</clipPath>
</defs>
</svg>
