<svg width="5466" height="5295" viewBox="0 0 5466 5295" fill="none" xmlns="http://www.w3.org/2000/svg">
<path d="M2344.2 2267.58C2373.52 2221.72 2404.48 2179.62 2441.87 2142.52C2446.23 2138.19 2452.53 2133.65 2453.49 2128.4C2465.63 2062.55 2520.14 2046.27 2571.86 2033.52C2651.32 2013.93 2711.07 2060.99 2770.31 2104.2C2775.27 2107.82 2779.56 2112.58 2783.51 2117.34C2800.18 2137.43 2816.21 2135.52 2831.35 2115.92C2864.09 2073.53 2909.64 2049.29 2957.65 2030.29C2992.19 2016.63 3027.79 2014.49 3062.36 2036.04C3078.61 2046.18 3097.23 2052.52 3113.67 2063.27C3132.25 2075.42 3149.43 2086.83 3147.57 2112.65C3146.72 2124.53 3157.27 2128.79 3164.79 2134.59C3214.91 2173.2 3251.53 2223.31 3284.02 2276.53C3293.16 2291.51 3307.38 2310.72 3277.48 2321.57C3288.99 2353.87 3300.51 2384.28 3310.68 2415.14C3336.31 2492.98 3300.04 2574.82 3241.49 2624.79C3227.54 2636.7 3219.18 2624.01 3209.15 2618.99C3193.91 2625.78 3190.79 2640.53 3184.52 2652.94C3168.26 2685.18 3162.91 2687.32 3128.46 2671.98C3135.94 2697.74 3141.88 2721.48 3149.77 2744.55C3159.09 2771.78 3145.99 2792.42 3130.84 2812.92C3141.41 2821.75 3152.51 2815.26 3162.45 2817.5C3172.72 2819.82 3180.78 2824.53 3183.84 2835.11C3186.65 2844.8 3182.94 2852.63 3175.29 2858.57C3161.68 2869.14 3147.88 2879.48 3133.44 2890.46C3143.95 2899.88 3154.28 2895.48 3163.49 2896.87C3174.07 2898.47 3182.16 2902.56 3185.66 2913.17C3189.18 2923.87 3185.1 2932.58 3177.25 2939.41C3154.29 2959.38 3131.85 2981.39 3097.06 2965.5C3094.87 2964.5 3091.77 2965.04 3089.19 2965.48C3087.7 2965.73 3086.41 2967.21 3082.99 2969.52C3099.1 2974.63 3114.13 2978.47 3128.44 2984.16C3148.26 2992.04 3149.84 3005.48 3134.15 3020.44C3085.01 3067.27 3029.13 3078.39 2967.96 3048.46C2933.81 3031.75 2899.25 3015.27 2868.58 2991.89C2829.81 2962.32 2826.8 2935.01 2852.15 2893.65C2882.07 2844.82 2929.39 2819.51 2975.61 2791.45C3017.18 2766.21 3020.84 2712.31 2983.81 2685.32C2978.44 2686.36 2977.13 2690.41 2976.7 2695.04C2974.28 2721.31 2961.23 2734.04 2934.01 2728.22C2899.48 2720.83 2870.18 2738.37 2839.34 2748.11C2808.78 2757.76 2779.69 2751.84 2751.54 2740.28C2732.37 2732.4 2714.06 2731.1 2694.82 2738.38C2669.69 2747.89 2662.35 2744.11 2655 2717.51C2652.2 2707.37 2652.01 2692.98 2638.25 2694.46C2624.11 2695.97 2620.21 2709.23 2619.48 2722.8C2617.51 2759.26 2633.93 2783.78 2671.46 2797.14C2728.11 2817.29 2765.8 2857.74 2795.08 2908.44C2809.66 2933.69 2807.7 2956.71 2788.48 2976.75C2732.71 3034.88 2668.49 3076.23 2583.5 3070.25C2548.68 3067.8 2522.67 3046.1 2498.72 3023.78C2485.25 3011.23 2492.08 2998.14 2509.68 2995.85C2526.85 2993.62 2541.9 2986.78 2559.75 2979.96C2551.85 2972.23 2544.52 2975.24 2537.37 2977.11C2505.99 2985.3 2462.85 2966.57 2448.9 2938.7C2439.05 2919.02 2451.19 2900.1 2473.15 2900.48C2481.82 2900.64 2489.78 2907.39 2499.78 2902.9C2496.36 2886.82 2479.77 2891.18 2470.95 2884.01C2458.8 2874.14 2440.15 2867.49 2446.29 2847.56C2452.21 2828.33 2470.85 2830.39 2486.81 2830.21C2492.85 2830.14 2498.91 2833.9 2508.65 2827.79C2495.33 2806.26 2471.2 2787.35 2484.34 2756.13C2494.48 2732.02 2502.37 2706.63 2502.74 2676.16C2448.42 2704.97 2446.97 2648.55 2419.72 2629.28C2397.87 2647.99 2381.67 2634.78 2365.06 2617.53C2310.1 2560.41 2290.27 2495.28 2314.68 2417.87C2321.32 2396.78 2325.3 2374.83 2334.51 2354.48C2337.13 2348.7 2340.01 2341.9 2333.62 2337.46C2309.85 2320.97 2320.48 2304.74 2332.85 2287.84C2337.01 2282.16 2339.79 2275.48 2344.2 2267.58ZM3133.4 2457.02C3166.91 2443.83 3189.68 2423.64 3182.67 2383.2C3181.43 2376.03 3184.61 2369.38 3189.63 2363.76C3204.7 2346.85 3195.34 2339 3178.17 2339.29C3155.63 2339.68 3138.93 2330.73 3124.88 2314.59C3108.53 2295.8 3089.2 2298.25 3069.24 2306.89C3061.13 2310.4 3053.2 2314.52 3045.73 2319.22C3025.77 2331.8 3011.56 2325.74 2998.2 2307.88C2988.8 2295.32 2981.17 2280.13 2961.82 2270.43C2971.44 2299.31 2983.07 2322.83 2973.44 2350.97C2962.09 2384.14 2938.14 2384.4 2906.74 2375.92C2930.56 2439.42 2966.72 2487.84 2996.07 2542.17C3010.19 2526.18 3010.19 2526.18 3011.95 2508.52C3015.94 2468.61 3031.07 2457.28 3069.04 2463.28C3089.23 2466.47 3109.78 2465.77 3133.4 2457.02ZM2630.5 2295.87C2623.55 2305.04 2615.19 2313.48 2609.96 2323.55C2600.05 2342.61 2588.69 2346.42 2569.26 2335.33C2553.1 2326.1 2536.89 2314.08 2516.17 2315.04C2516.07 2350.41 2515.63 2350.73 2477.99 2350.12C2463.77 2349.88 2449.55 2349.72 2435.35 2350.14C2425.82 2350.43 2415.22 2349.98 2412.81 2364.75C2430.87 2376.88 2440.77 2392.6 2433.54 2416.12C2430.95 2424.54 2435.73 2433.99 2442.42 2440.25C2475.09 2470.8 2513.07 2483.5 2557.41 2472.4C2592.37 2463.65 2604.17 2471.67 2609.31 2507.02C2611.37 2521.23 2609.5 2537.13 2625.83 2552.3C2661.89 2499.58 2677.39 2439.77 2711.38 2382.17C2651.13 2399.65 2623.87 2368.84 2646.2 2286.41C2639.76 2284.91 2636.99 2290.36 2630.5 2295.87Z" fill="#BB9629"/>
<path d="M3292.89 1690.2C3274.53 1692.56 3260.67 1691.19 3255.99 1671.17C3253.27 1659.5 3242.2 1654.4 3232.2 1651.68C3186.29 1639.2 3140.34 1626.46 3091.97 1628.05C3083.2 1628.33 3074.17 1627.44 3065.59 1625.6C2956.6 1602.14 2846.02 1597.06 2735.49 1604.27C2686.29 1607.47 2635.8 1611.91 2587.94 1622.17C2522.27 1636.25 2454.08 1635.87 2390.19 1658.62C2368.52 1666.33 2346.78 1671.58 2333.5 1694.38C2322.77 1712.8 2261.91 1713.15 2247.64 1697.13C2231.01 1678.46 2246.62 1647.37 2272.86 1632.43C2330.5 1599.61 2395.52 1589.31 2456.91 1568.41C2495.87 1555.15 2538.64 1553.04 2579.73 1546.08C2591.66 1544.06 2603.67 1542.54 2615.33 1537.36C2584.29 1536.02 2553.45 1535.92 2522.99 1542.95C2482.65 1552.25 2442.71 1564.18 2401.9 1570.37C2360.91 1576.59 2323.4 1591.46 2285.32 1605.98C2252.67 1618.44 2237.28 1609.1 2231.79 1574C2229.78 1561.14 2221.78 1551.38 2217.93 1539.58C2199.87 1484.2 2182.96 1428.37 2162.63 1373.82C2147.89 1334.25 2132.44 1295.02 2098.08 1265.48C2062.43 1234.84 2062.1 1201.72 2091.22 1173.74C2114.03 1151.83 2137.55 1151.61 2164.89 1173.07C2196.61 1197.96 2202.56 1216.02 2183.63 1244.67C2174.45 1258.58 2175.52 1267.39 2184.39 1279.86C2217.13 1325.91 2243.39 1376.52 2299.51 1402.06C2361.6 1430.32 2414.83 1399.57 2414.31 1332.02C2414.13 1308.08 2414.23 1286.99 2390.84 1268.69C2374.48 1255.88 2361.58 1231.82 2378.82 1206.84C2392.79 1186.6 2410.12 1172.24 2436.01 1175.12C2454.9 1177.23 2487.35 1209.63 2489.26 1226.94C2491.05 1243.17 2482.33 1256.46 2473.07 1268.13C2463.08 1280.74 2462.55 1291.33 2472.02 1303.98C2476.74 1310.28 2480.07 1317.85 2482.95 1325.27C2514.53 1406.76 2618.13 1400.41 2660.85 1348.48C2699.6 1301.35 2723.61 1249.17 2740.55 1191.36C2750.84 1156.25 2752.48 1119.75 2763.72 1085.21C2768.19 1071.47 2761.51 1063.59 2751.53 1056.03C2689.31 1008.87 2722.01 953.152 2767.75 925.05C2781.19 916.794 2793.56 917.586 2807.22 927.089C2852.08 958.283 2859.53 1004.86 2824.67 1047.19C2816.05 1057.66 2813.03 1068.37 2815.4 1081.65C2828.67 1156.02 2846.84 1229.38 2885.31 1294.7C2905.72 1329.36 2933.75 1360.01 2975.24 1374.43C3010.2 1386.58 3039.1 1378.73 3066.97 1356.81C3087.09 1341 3092.87 1316.9 3105.02 1296.52C3119.49 1272.24 3108.38 1250.95 3096.81 1229.02C3088.95 1214.13 3109.55 1178.41 3130.67 1165.61C3150.89 1153.36 3167.74 1158.12 3182.79 1174.86C3209.58 1204.66 3209.95 1233.38 3183.71 1262.7C3164.02 1284.7 3163.96 1334.67 3183.59 1365.38C3198.53 1388.76 3237.14 1399.78 3267.19 1390.5C3339.39 1368.23 3372.52 1310.53 3398.46 1246.47C3404.11 1232.52 3398.46 1218.39 3394.15 1204.8C3386.99 1182.19 3390.47 1161.21 3409.9 1147.41C3424.69 1136.9 3438.71 1118.5 3461.94 1131.28C3486.54 1144.81 3506.05 1162.35 3508.22 1191.99C3509.41 1208.36 3499.37 1220.94 3485.69 1228.85C3459.48 1244.01 3446.3 1265.3 3438.69 1295.53C3424.91 1350.33 3405.13 1403.68 3386.78 1457.27C3374.21 1494.02 3371.62 1533.92 3350.84 1568.1C3343.42 1580.29 3338.4 1597 3319.99 1589.09C3302.41 1581.54 3290.25 1570.74 3295.57 1545.78C3301.27 1519.07 3314.88 1496.61 3324.21 1471.97C3327.76 1462.62 3335.86 1453.57 3328.15 1441.65C3247.86 1484.28 3179.88 1469.95 3125.41 1394.91C3084.92 1421.91 3046.69 1453.24 2996.3 1445.33C2949.84 1438.03 2909.34 1415.65 2874.38 1380.35C2882.11 1407.22 2920.1 1437.87 2950.13 1449.22C3010.76 1472.15 3075.65 1468.79 3137.8 1482.06C3151.89 1485.06 3164.75 1490.57 3178.22 1494.58C3208.56 1503.6 3238.33 1514.61 3268.06 1525.56C3279.58 1529.8 3289.14 1537.86 3284.62 1551.79C3280.44 1564.63 3268.71 1562.85 3257.69 1562.6C3197.04 1561.25 3139.39 1540.81 3079.4 1535.01C3060.04 1533.13 3041.19 1532.5 3021.87 1535.62C3050.66 1547.33 3081.26 1549.74 3111.32 1551.65C3135.67 1553.2 3158.07 1558.61 3181.18 1565.87C3226.36 1580.07 3273.24 1588.13 3316.24 1610.09C3340.48 1622.47 3352.96 1639.03 3348.83 1666.01C3344.63 1693.38 3323.85 1688.57 3305.58 1688.97C3302.03 1689.05 3298.49 1689.55 3292.89 1690.2ZM2688.67 1429.29C2697.75 1415.97 2712.52 1406.22 2717.19 1384.09C2709.3 1389.57 2704.32 1391.66 2701.28 1395.35C2647.47 1460.51 2542.06 1477.17 2474.11 1432.01C2458.88 1421.89 2448.13 1429.31 2439.75 1440.12C2422.57 1462.29 2398.84 1468.15 2373.14 1474.51C2341.36 1482.38 2310.39 1474.33 2279.18 1473.38C2274.7 1493.06 2290.52 1501.32 2294.49 1514.35C2301.77 1538.21 2315.01 1542.54 2338.53 1533.32C2408.55 1505.87 2481.19 1489.49 2556.24 1480.91C2602.43 1475.63 2649.13 1465.23 2688.67 1429.29Z" fill="#BB9629"/>
<path d="M1560.92 1820.02C1578.13 1841.12 1599.38 1858.68 1608.62 1886.35C1614.85 1905.01 1618.79 1921.66 1609.65 1940.01C1604.32 1950.72 1601.17 1962.67 1613.31 1971.11C1632.45 1984.41 1628.52 2002.63 1622.12 2018.95C1597.86 2080.87 1569.43 2141 1539.34 2200.31C1536.16 2206.56 1531.82 2212.52 1526.93 2217.56C1514.63 2230.24 1500.7 2239.21 1481.94 2231.51C1463.73 2224.03 1456.81 2210.31 1461.82 2185.94C1448.63 2198.5 1438.34 2207.39 1429.1 2217.25C1362.17 2288.74 1279.67 2342.87 1210.9 2411.96C1147.74 2475.42 1083.74 2538.18 1024.67 2605.72C980.348 2656.4 938.446 2709.51 887.263 2753.83C841.95 2793.06 796.206 2798.39 747.362 2771.36C739.404 2766.95 732.071 2762.04 727.962 2753.77C718.63 2734.99 702.574 2724.68 681.96 2717.3C680.209 2716.89 680.387 2717.06 680.387 2717.06C667.351 2700.49 651.582 2686.67 641.058 2667.43C608.739 2608.32 636.634 2563.63 670.241 2517.05C739.745 2420.72 806.922 2322.74 870.645 2222.38C916.336 2150.42 960.042 2077.26 994.088 1999.28C1044.86 1882.98 1123.8 1788.49 1216.63 1705.17C1245.33 1679.42 1278.36 1655.24 1321.32 1651.67C1340.22 1650.09 1353.9 1654.48 1367.37 1665.83C1408.08 1700.12 1448.65 1734.59 1489.91 1768.22C1511.79 1786.05 1534.99 1802.27 1559.31 1819.68C1561.03 1820.15 1560.92 1820.02 1560.92 1820.02ZM1198.08 1913.62C1141.7 1982.51 1100.36 2061.45 1051.83 2135.51C1013.97 2193.29 977.311 2252.15 937.453 2308.4C884.648 2382.92 829.439 2455.75 779.399 2532.26C768.201 2549.38 756.442 2566.18 752.506 2586.86C747.101 2615.25 760.79 2633.98 799.965 2655.56C822.586 2668.02 838.777 2659.49 854.087 2643.18C897.239 2597.21 939.208 2550.21 980.832 2502.82C1045.83 2428.83 1112.17 2355.91 1180.52 2285.01C1249.42 2213.53 1320.44 2144.06 1387.32 2070.62C1417.02 2038 1420.63 1984.53 1391.65 1963.01C1357.43 1937.61 1324.3 1910.75 1290.29 1885.05C1271.98 1871.2 1252.57 1871.9 1232.84 1883.09C1220.18 1890.28 1210.84 1900.96 1198.08 1913.62ZM1151.57 1851.23C1139.26 1876.2 1119.6 1897.33 1114.34 1926.76C1159.83 1853.32 1220.46 1793.28 1281.27 1733.33C1229 1761.17 1189.6 1802.73 1151.57 1851.23ZM1421.1 2110.02C1390.41 2142.16 1357.86 2172.67 1332.81 2209.8C1379.26 2172.9 1421.93 2132.57 1459.47 2077.48C1438.26 2084.96 1434.79 2100.12 1421.1 2110.02Z" fill="#BB9629"/>
<path d="M962.34 3282.03C921.115 3247.02 879.53 3212.42 838.852 3176.78C823.583 3163.41 808.955 3148.74 796.704 3132.63C783.757 3115.6 777.146 3095.36 794.097 3076.63C809.83 3059.24 829.655 3053.78 852.218 3063.17C883.609 3076.25 911.806 3095.18 938.154 3115.89C964.097 3136.28 995.152 3148.18 1023.52 3177.34C1020.73 3138.87 1049.63 3130.15 1066.21 3112.73C1100.21 3077.01 1127.34 3036.9 1152.17 2994.9C1163.45 2975.81 1165.38 2954.05 1161.75 2932.88C1158.23 2912.35 1164.73 2896.37 1176.9 2881.19C1235.79 2807.72 1300.3 2739.09 1361.22 2667.42C1399.71 2622.13 1440.23 2578.49 1476.93 2531.7C1521.31 2475.12 1579.55 2470.99 1629.25 2521.96C1650.78 2544.03 1653.33 2562.01 1638.41 2589.19C1622.39 2618.37 1597.55 2640.64 1576.51 2665.71C1496.62 2760.85 1415.24 2854.76 1333.75 2948.53C1312.26 2973.26 1290.08 2996.5 1252.29 2998.08C1235.89 2998.77 1221.23 3013.19 1209.63 3027.7C1171.79 3075.02 1143.58 3128.65 1109.84 3178.65C1098.6 3195.31 1089.69 3210.11 1065.03 3200.49C1149.32 3265.72 1239.01 3317.01 1329.23 3367.01C1417.68 3416.03 1510.32 3456.66 1605.77 3490.58C1651.62 3506.87 1697.21 3523.86 1742.81 3540.85C1762.06 3548.02 1780.04 3557.49 1795.32 3571.72C1829.55 3603.6 1830.97 3639.46 1798.62 3674.06C1788.92 3684.44 1778.65 3694.32 1768.2 3703.96C1737.06 3732.69 1722.74 3735.27 1684.95 3717.26C1609.82 3681.44 1532.1 3650.88 1460.51 3607.84C1388.28 3564.42 1315.18 3522.27 1244.55 3476.35C1166.59 3425.66 1091.07 3371.22 1014.33 3318.65C999.795 3308.69 989.836 3292.33 968.639 3286.58C964.792 3284.06 963.589 3283.02 962.34 3282.03ZM1290.2 2923.37C1365.75 2836.32 1441.55 2749.49 1516.7 2662.1C1541.56 2633.21 1568.28 2605.72 1588.94 2573.42C1594.57 2564.63 1602.1 2554.91 1591.26 2544.88C1580.3 2534.75 1567.65 2532.64 1554.75 2541.13C1549.65 2544.48 1545.33 2549.21 1541.22 2553.81C1485.17 2616.52 1430.9 2680.72 1377.17 2745.46C1337.61 2793.12 1293.79 2837.28 1255.53 2886.2C1247.1 2896.98 1242.06 2907.96 1253.77 2919.11C1263.22 2928.09 1273.01 2939.8 1290.2 2923.37ZM1567.31 3562.48C1495.53 3526.91 1423.74 3491.34 1347.49 3453.55C1352.04 3459.42 1353.07 3461.84 1354.9 3462.94C1407.93 3494.93 1459.8 3529.32 1516.65 3554.04C1532.07 3560.74 1548.35 3578.31 1567.31 3562.48ZM1716.41 3642.1C1729.44 3654.94 1735.03 3644.84 1738.84 3634.02C1741.6 3626.17 1737.05 3618.49 1729.32 3618.05C1715.12 3617.25 1711.28 3626.28 1716.41 3642.1Z" fill="#BB9629"/>
<path d="M4135.07 3454.75C4064.99 3517.78 3996.49 3579.73 3927.59 3641.25C3894.5 3670.8 3866.86 3670.03 3833.66 3639.86C3826.42 3633.28 3819.04 3626.81 3812.34 3619.71C3793.9 3600.18 3792.11 3581.25 3807.78 3559.7C3821.4 3540.97 3838.25 3526.04 3857.97 3512.83C3937.68 3459.47 4014.16 3401.5 4091.9 3345.31C4175.32 3285.01 4255.07 3220.15 4332.7 3153.01C4384.33 3108.36 4436 3063.53 4486.51 3017.52C4554.7 2955.4 4623.86 2894.35 4691.55 2831.65C4715.31 2809.64 4740.72 2788.73 4764.82 2766.64C4794.04 2739.87 4844.9 2740.68 4871.81 2767.37C4904.21 2799.52 4907.31 2856.58 4878.25 2888.83C4781.29 2996.44 4675.72 3095.2 4567.18 3190.88C4538.58 3216.09 4515.51 3246.98 4483.05 3268.45C4465.31 3280.17 4450.11 3282.64 4431.12 3273.66C4392.42 3255.36 4355.95 3256.99 4322.57 3287.15C4260.83 3342.92 4198.55 3398.08 4135.07 3454.75ZM4341.04 3218.33C4361.22 3206.83 4384.54 3216.09 4405.7 3210.02C4394.89 3169.61 4383.51 3165.72 4355.68 3191.51C4349.2 3197.51 4341.93 3202.72 4335.89 3209.1C4333 3212.15 4327.31 3218.23 4341.04 3218.33Z" fill="#BB9629"/>
<path d="M1536.18 4259.21C1556.49 4162.51 1576.61 4068.08 1596.74 3973.64C1599.17 3962.25 1600.01 3951.28 1596.14 3939.58C1586.63 3910.89 1597.34 3895.89 1628.54 3894.94C1660.48 3893.98 1692.46 3894.73 1724.42 3894.6C1728.67 3894.59 1732.92 3893.86 1737.58 3891.56C1714.49 3881.78 1692.14 3870.84 1667.32 3866.34C1646.63 3862.58 1632.06 3875.51 1615.81 3884.29C1604.97 3890.15 1593.67 3897.84 1581.36 3887.74C1570.14 3878.53 1575.04 3867.19 1577.63 3855.78C1595.42 3777.3 1670.95 3766.13 1726.1 3799.52C1747 3812.18 1763.53 3825.26 1779.96 3794.99C1784.27 3787.05 1794.97 3785.7 1804.16 3789.44C1812.37 3792.78 1815.63 3799.6 1816.74 3808.29C1821.03 3841.95 1813.84 3881.71 1756.82 3890.22C1787.66 3900.59 1790.04 3920.76 1788.18 3943.07C1787.21 3954.75 1790.39 3965.76 1794.54 3976.81C1804.85 4004.25 1810.33 4033.16 1818.25 4061.22C1843.24 4149.74 1857.46 4241.12 1889.81 4327.71C1896.81 4346.46 1897.15 4367.62 1901.62 4387.42C1906.17 4407.59 1914.97 4425.58 1929.37 4441.22C1943.58 4456.64 1937.34 4476.71 1916.41 4477.72C1866.73 4480.11 1816.78 4480.69 1767.13 4478.16C1747.57 4477.16 1746.28 4458.17 1753.55 4442.79C1759.97 4429.22 1762.72 4416.2 1759.04 4401.66C1748.74 4360.96 1741.81 4356.02 1699.6 4359.86C1696.95 4360.1 1694.29 4360.32 1691.62 4360.49C1635.81 4364.04 1617.65 4397.97 1645.1 4447.44C1657.45 4469.68 1653.02 4478.58 1628.06 4479.88C1588.13 4481.97 1548.16 4483.49 1508.2 4485.16C1496.44 4485.65 1484.33 4485.72 1477.48 4473.87C1470.57 4461.92 1482.44 4454.91 1485.63 4445.46C1499.73 4403.58 1514.17 4361.58 1524.14 4318.62C1528.49 4299.87 1535.45 4281.18 1536.18 4259.21ZM1708.86 4163.46C1706.08 4138.76 1711.65 4112.3 1691.23 4085.04C1681.8 4145.44 1673.19 4200.53 1664.69 4254.96C1678.5 4261.72 1690.15 4259.27 1701.55 4259.53C1722.52 4260.01 1731.07 4252.08 1724.48 4230.14C1718.37 4209.79 1714.41 4188.79 1708.86 4163.46Z" fill="#E5D5A1"/>
<path d="M4362.99 4389.66C4325.13 4422.21 4283.72 4438.12 4234.88 4437.12C4180.74 4436.01 4126.52 4436.37 4072.4 4441.22C4036.08 4444.47 4026.11 4428.92 4042.82 4397.17C4048.93 4385.56 4050.61 4373.66 4050.48 4361.19C4048.98 4218.17 4047.28 4075.15 4045.92 3932.13C4045.77 3917.03 4039.88 3905.4 4031.1 3893.42C4014.39 3870.62 4023.9 3847.93 4051.55 3850C4120.06 3855.1 4188.32 3843.4 4256.53 3849.21C4325.1 3855.04 4393.76 3921.1 4416.7 3985.24C4447.88 4072.4 4438.73 4161.35 4434.69 4248.98C4432.31 4300.64 4406.69 4351.34 4362.99 4389.66ZM4284.12 4285.51C4305.17 4203.97 4296.84 4121.49 4290.77 4039.28C4289.38 4020.53 4287.65 4000.22 4270.73 3985.81C4246.57 3965.24 4217.59 3968.08 4192.11 3975.1C4170.88 3980.95 4180.38 4006.21 4180.77 4022.52C4182.81 4106.95 4186.47 4191.34 4189.83 4275.74C4191.52 4318.26 4210.68 4330.03 4251.4 4313.52C4263.86 4308.47 4275.08 4301.14 4284.12 4285.51Z" fill="#E5D5A1"/>
<path d="M4822.31 2215.44C4892.07 2223.63 4943.54 2258.08 4983.37 2311.76C5012.79 2351.41 5026.98 2394.57 5028 2445.23C5029.51 2520.27 5074.39 2560.05 5148.13 2560.97C5186.12 2561.44 5202.16 2570.14 5202.26 2590.35C5202.37 2612.32 5173.05 2632.89 5141.69 2630.08C5091.8 2625.61 5046.81 2606.45 5008.17 2575.25C4982.7 2554.69 4958.94 2548.16 4928.05 2562.69C4856.1 2596.5 4793.88 2569.17 4733.86 2529.07C4674.42 2489.35 4651.45 2432.57 4650.3 2363.27C4649.23 2298.55 4621.42 2250.1 4560.11 2222.35C4486.59 2189.06 4411.32 2161.27 4332.05 2145.81C4287.03 2137.02 4248.62 2116.88 4215.12 2086.46C4108.47 1989.58 3990.21 1908.1 3872.48 1825.72C3807.09 1779.96 3744.47 1730.23 3680.93 1681.86C3672.19 1675.21 3665.62 1665.39 3673.74 1654.14C3681.68 1643.15 3691.98 1649.52 3700.04 1654C3740.34 1676.41 3779.85 1700.25 3820.35 1722.29C3891.26 1760.88 3963.1 1797.8 4033.81 1836.77C4105.13 1876.09 4179.45 1909.35 4250.82 1948.83C4379.94 2020.25 4495.59 2111.28 4618.21 2192.05C4657.55 2217.96 4696.86 2231.38 4743.32 2224.61C4768.77 2220.91 4794.4 2218.48 4822.31 2215.44ZM4963.96 2386.16C4956.31 2372.18 4949.18 2357.89 4940.92 2344.28C4906.39 2287.33 4820.71 2257.62 4758.42 2281.23C4733.06 2290.84 4714.53 2307.24 4708.99 2335.57C4698.46 2389.39 4712.53 2435.35 4751.96 2473.46C4797.59 2517.56 4851.46 2528.84 4910.85 2509.65C4965.62 2491.96 4987.58 2441.63 4963.96 2386.16ZM4302.51 2041.14C4290.57 2034.2 4277.37 2022.06 4269.54 2044.67C4266.74 2052.78 4268.09 2064.69 4278.93 2066.27C4294.11 2068.47 4302.84 2059.28 4302.51 2041.14Z" fill="#BB9629"/>
<path d="M2338.42 4305.26C2324.07 4378.64 2290.29 4434.25 2220.83 4464.61C2105.92 4514.82 1966.13 4442.94 1944.91 4333.02C1923.99 4224.71 1913.33 4117.17 1950.19 4010.93C1990.6 3894.46 2148.65 3829.89 2265.25 3931.93C2322.71 3982.21 2336.03 4046.56 2338.11 4116.19C2339.97 4178.36 2338.52 4240.63 2338.42 4305.26ZM2068.8 4278.36C2071.18 4291.44 2073.41 4304.54 2075.95 4317.58C2080.44 4340.61 2095.46 4352.05 2117.76 4356.28C2171.98 4366.56 2200.21 4346.37 2201.77 4286.93C2203.69 4213.59 2201 4140.02 2197.57 4066.68C2195.52 4022.8 2170.61 4002.97 2127.93 4004.65C2090.39 4006.12 2067.67 4031.91 2067.65 4074.41C2067.61 4140.98 2068.19 4207.55 2068.8 4278.36Z" fill="#E5D5A1"/>
<path d="M3862.42 4165.29C3856.87 4107.8 3859.22 4052.63 3857.87 3997.55C3856.98 3960.79 3860.71 3923.35 3835.13 3890.77C3823.72 3876.24 3833.34 3855.97 3851.9 3854.86C3891.72 3852.48 3931.82 3852.42 3971.68 3854.17C3989.87 3854.96 3997.53 3875.11 3985.92 3893.41C3973.56 3912.9 3972.24 3933.19 3972.7 3954.64C3974.96 4061.28 3979.93 4167.95 3978.46 4274.54C3977.48 4345.37 3935.03 4435.85 3845.63 4449.84C3788.63 4458.76 3736.48 4456.77 3689.61 4431.14C3630.78 4398.97 3607.4 4338.53 3604.2 4274.02C3600.46 4198.7 3600.68 4123.1 3604.81 4047.56C3606.79 4011.33 3602.96 3974.79 3601.95 3938.39C3601.58 3924.91 3593.22 3915.54 3586.2 3905.3C3579.13 3894.98 3571.64 3884.26 3579.04 3871.04C3585.69 3859.17 3597.62 3858.48 3609.37 3858.49C3646.72 3858.54 3684.07 3858.21 3721.39 3859.12C3751.12 3859.85 3757.78 3872.5 3741.69 3897.51C3733.98 3909.51 3731.68 3921.98 3732.27 3935.52C3737.01 4043.89 3737.78 4152.32 3737.74 4260.78C3737.74 4273.04 3740.41 4285.48 3743.17 4297.53C3749.03 4323.08 3769.98 4342.15 3792.02 4343.14C3817.2 4344.27 3843.29 4326.56 3851.82 4302.19C3859.18 4281.16 3864.5 4259.87 3863.39 4237.13C3862.27 4214.06 3862.73 4190.91 3862.42 4165.29Z" fill="#E5D5A1"/>
<path d="M4530.01 4006.09C4535.42 3974.17 4533.89 3943.54 4545.17 3914.75C4549.42 3903.92 4546.85 3892.29 4542.32 3881.01C4533.21 3858.37 4541.5 3842.73 4566.1 3839.65C4613.02 3833.77 4660.01 3842.42 4707.11 3841.58C4726.37 3841.24 4735.78 3858.66 4732.9 3878.07C4730.71 3892.92 4734.92 3905.69 4738.74 3919.53C4761.51 4002.23 4785.57 4084.7 4804.48 4168.31C4817.95 4227.88 4841.93 4284.59 4849.74 4345.64C4851.84 4362.12 4850.4 4375.38 4839.48 4387.4C4828.09 4399.93 4818.2 4419.9 4804.52 4423.07C4772.83 4430.4 4738.99 4429.35 4706.51 4424.2C4689.5 4421.5 4689.47 4405.74 4698.79 4395.14C4722.6 4368.02 4707.95 4344.01 4695.86 4319.05C4691.13 4309.29 4682.64 4307.97 4673.55 4307.88C4655.77 4307.69 4637.94 4308.69 4620.22 4307.68C4598.81 4306.46 4588.95 4317.11 4587.02 4336.89C4585.12 4356.39 4583.75 4375.9 4591.89 4394.68C4600.93 4415.54 4591.27 4426.94 4571.1 4426.17C4536.99 4424.87 4504.07 4432.1 4470.65 4435.78C4457.17 4437.27 4443.5 4437.5 4434.24 4424.96C4424.51 4411.79 4435 4402.45 4440.26 4391.32C4456.93 4356.06 4474.65 4320.42 4471.87 4280.04C4469.84 4250.46 4484.16 4224.87 4490.31 4197.73C4504.58 4134.81 4505.8 4069.15 4530.01 4006.09ZM4660.91 4121.05C4653.7 4096.87 4657.01 4069.37 4639.75 4044.73C4630.69 4062 4638.85 4077.43 4632.72 4090.21C4618.12 4120.68 4624.87 4153.11 4622.53 4184.68C4621.18 4202.9 4633.02 4206.83 4648.36 4206.61C4663.36 4206.4 4673.65 4203.1 4674.74 4184.61C4675.99 4163.31 4669.01 4144.48 4660.91 4121.05Z" fill="#E5D5A1"/>
<path d="M3725.26 2538.29C3772.11 2588.01 3809.55 2641.11 3821.27 2708.25C3831.2 2765.1 3842.46 2821.98 3831.2 2880.17C3828.97 2891.73 3828.23 2905.44 3813.46 2905.88C3798.06 2906.35 3797.64 2892.39 3795.51 2880.89C3785.52 2827.05 3766.42 2776.98 3733.27 2732.83C3729.56 2727.91 3726.74 2722.18 3717.36 2721.32C3714.54 2734.11 3721.01 2745.28 3725.29 2755.73C3760.68 2842.35 3763.13 2931.23 3748.02 3022.36C3739.06 3076.39 3722.46 3126.94 3693.72 3173.44C3686.85 3184.55 3680.08 3199.56 3664.04 3195.05C3647.42 3190.39 3650.41 3174.13 3651.28 3161.03C3659.63 3035.87 3617.76 2928.1 3541.64 2830.37C3502.49 2780.12 3466.31 2727.36 3432.54 2673.11C3420.9 2654.4 3423.52 2631.58 3412.35 2612.94C3409.63 2608.4 3411.7 2602.15 3417.29 2599.3C3425.93 2594.89 3433.06 2599.03 3438.77 2605.01C3453.45 2620.38 3461.75 2640.69 3478.79 2654.55C3507.01 2677.49 3534.06 2701.85 3561.83 2725.36C3599.95 2757.63 3631.15 2795.64 3658.16 2838.41C3661.65 2815.85 3649.77 2797.21 3640.98 2778.69C3607.66 2708.53 3554.06 2653.48 3499.79 2600.09C3466.48 2567.33 3449.93 2524.83 3422.87 2488.78C3416.96 2480.92 3418.75 2471.28 3426.71 2464.83C3435.67 2457.57 3445.22 2462.31 3450.31 2469.13C3493.64 2527.07 3567.53 2536.41 3619.4 2579.95C3627.12 2571.31 3620.54 2567.92 3617.57 2564.51C3573.69 2514.21 3524.85 2469.24 3471.6 2429.02C3455.29 2416.7 3444.27 2398.96 3427.39 2386.89C3419.66 2381.36 3415.69 2370.02 3422.88 2360.63C3430.72 2350.38 3440.53 2355.93 3449.32 2360.32C3547.24 2409.25 3640.5 2465.44 3725.26 2538.29Z" fill="#BB9629"/>
<path d="M1447.65 4040.43C1434.08 4057.11 1421.55 4051.14 1409.19 4042.16C1368.34 4012.5 1321.84 4027.95 1277.62 4026.2C1266.36 4025.76 1265.75 4037.62 1265.76 4046.69C1265.79 4067.13 1266.45 4087.58 1266.2 4108.01C1266 4123.68 1273.02 4131.01 1288.67 4130.54C1316.03 4129.73 1343.7 4134.23 1370.51 4124.59C1387.84 4118.35 1396.01 4128.4 1398.38 4143.47C1403.36 4175.09 1405.62 4207 1404.93 4239.07C1404.47 4260.27 1392.76 4267.08 1373.35 4264.28C1347.03 4260.47 1321.01 4254.85 1294.11 4255.17C1274.98 4255.39 1266.47 4262.86 1267.55 4282.52C1268.67 4302.89 1267.6 4323.38 1268.3 4343.78C1268.88 4360.63 1277.92 4368.88 1295.31 4370.11C1343.72 4373.56 1388.11 4361.69 1429.17 4336.72C1445.07 4327.04 1457.1 4331.24 1457.81 4348.48C1459.39 4386.43 1464.78 4424.73 1456.86 4462.5C1453.03 4480.77 1438.15 4488.38 1420.9 4488.57C1324.92 4489.61 1228.93 4490.04 1132.95 4490.58C1122.76 4490.64 1113.16 4488.37 1108.13 4478.29C1102.56 4467.14 1109.75 4459.63 1116.98 4452.86C1130.97 4439.76 1134.84 4423.91 1135.17 4404.92C1137.64 4262.69 1121.84 4120.91 1125.01 3978.69C1125.29 3966.01 1120.31 3956.56 1111.89 3947.96C1103.12 3939 1099.6 3927.9 1103.71 3916.11C1108.45 3902.56 1121.52 3902.37 1132.85 3902.22C1203.95 3901.33 1275.05 3901.01 1346.15 3900.45C1363.01 3900.31 1379.75 3900.35 1396.57 3897.2C1415.99 3893.56 1436.09 3899.46 1438.26 3920.13C1442.39 3959.49 1453.04 3998.46 1447.65 4040.43Z" fill="#E5D5A1"/>
<path d="M1989.43 3145.09C1991.05 3165.93 1993.04 3184.52 1993.78 3203.16C1994.2 3213.74 1989.08 3222.44 1978.36 3225.61C1966.78 3229.03 1958.2 3221.96 1954.81 3212.76C1937.54 3165.94 1909.77 3124.66 1903.4 3071.54C1897.55 3022.78 1884.31 2974.76 1885.64 2924.63C1887.19 2865.8 1904.58 2809.96 1913.44 2754.51C1892.47 2768.56 1872.78 2799.98 1855.26 2844.22C1846.53 2866.27 1845.01 2888.86 1842.78 2911.8C1841.6 2924 1839.36 2939.13 1822.76 2938.51C1806.53 2937.91 1801.73 2924.25 1800.31 2910.08C1789.6 2803.55 1804.77 2702.22 1868.62 2613.64C1905.1 2563.04 1952.56 2521.92 2004.24 2487.15C2059.41 2450.03 2116.63 2415.94 2173.26 2381.02C2182.23 2375.5 2193.36 2362.38 2203.25 2375.47C2212.37 2387.54 2201.36 2399.09 2192.5 2407.67C2152.29 2446.63 2112.44 2486.02 2070.83 2523.44C2044.76 2546.89 2029.31 2578.32 2004.37 2602.99C2021.49 2605.33 2030.98 2592.03 2043.18 2585.89C2087.59 2563.52 2131.6 2540.04 2164.61 2500.98C2170.77 2493.7 2178.92 2484.69 2189.44 2490.92C2200.84 2497.67 2193.55 2508.13 2190.75 2517.18C2168.58 2588.64 2117.66 2639.77 2067.13 2690.96C2028.67 2729.92 1994.31 2771.17 1977.73 2824.74C1974 2836.82 1971.47 2848.02 1975.96 2860.27C1979.24 2859.33 1981.71 2859.38 1982.31 2858.35C2029.02 2777.99 2103.53 2722 2162.98 2652.82C2176.01 2637.65 2184.44 2620.35 2195.01 2604.04C2199.99 2596.37 2206.06 2589.03 2216.73 2593.89C2225.78 2598.01 2229.78 2606.16 2228.77 2615.73C2228.04 2622.67 2226.21 2629.81 2223.31 2636.15C2190.08 2708.83 2152.58 2778.73 2102.88 2842.14C2062.17 2894.07 2032.85 2952.83 2011.32 3015.66C1997.09 3057.2 1986.4 3098.68 1989.43 3145.09Z" fill="#BB9629"/>
<path d="M3280.17 2986.59C3283.51 2970.84 3282.05 2952.75 3301.94 2952.85C3320.2 2952.94 3321.7 2968.2 3324.89 2983.04C3336.91 3038.89 3357.83 3091.39 3392.07 3137.55C3401.87 3150.76 3401.77 3167.53 3413.28 3186.98C3422.54 3157.61 3416.43 3135.37 3410.06 3113.22C3391.98 3050.3 3372.1 2987.79 3372.07 2921.25C3372.06 2907.02 3376.64 2895.09 3385.39 2884.59C3401.15 2865.69 3417.53 2868 3423.21 2892.08C3435.07 2942.46 3466.11 2982.44 3491.24 3030.36C3499.52 3015.09 3498.44 3003.49 3492.93 2992.7C3471.18 2950.14 3457.41 2904.29 3435.38 2861.43C3419.15 2829.87 3409.21 2792.44 3401.56 2756.17C3399.62 2747.02 3398.56 2734.98 3410.41 2730.92C3421.59 2727.1 3429.19 2735.21 3433.79 2744.22C3475.44 2825.82 3540.9 2892.4 3579.4 2976.06C3600.31 3021.51 3618.71 3068.99 3615.7 3118.43C3610.54 3203.22 3583.34 3282.68 3537.23 3354.81C3530.49 3365.35 3522.12 3376.93 3507.18 3369C3493.11 3361.53 3499.33 3349.75 3503.28 3338.69C3519.09 3294.5 3520.29 3248.61 3518.52 3202.42C3518.35 3197.99 3517.94 3193.48 3512.04 3191.81C3502.44 3195.98 3502.79 3205.9 3500.68 3214.02C3484.41 3276.53 3467.11 3338.79 3436.37 3396.01C3414.39 3436.91 3383.16 3471.25 3351.68 3505.02C3344.41 3512.82 3333.88 3519.52 3323.25 3511.27C3311.2 3501.92 3320.28 3491.92 3325.54 3483.14C3374.69 3401.16 3370.99 3318.09 3339.75 3230.05C3324.87 3188.11 3306.71 3148.18 3289.75 3107.42C3273.9 3069.33 3278.21 3028.86 3280.17 2986.59Z" fill="#BB9629"/>
<path d="M2133.93 3322.03C2138.85 3340.54 2142.94 3356.82 2152.01 3371.51C2157.09 3379.73 2156.49 3389.19 2147.44 3395.03C2139.31 3400.27 2131.31 3396.57 2126.09 3390.06C2114.46 3375.57 2102.57 3361.04 2092.98 3345.2C2054.46 3281.58 2032.64 3211.18 2032.63 3137.95C2032.62 3060.67 2059.45 2989.06 2102.26 2923.26C2132.67 2876.51 2165.67 2830.92 2187.21 2778.83C2191.71 2767.98 2198.06 2758.87 2210.9 2763.42C2224.11 2768.1 2229.87 2779.34 2227.14 2793.35C2224.26 2808.11 2222.67 2823.8 2216.3 2837.06C2204.75 2861.09 2200.76 2887.92 2188.3 2911.13C2162.78 2958.67 2150.8 3010.44 2137.83 3062.26C2166.41 3012.46 2193.7 2962.17 2215.96 2909.29C2219.94 2899.82 2221.07 2886.64 2235.22 2887.24C2247.99 2887.78 2251.83 2899.49 2255.93 2909.17C2274.57 2953.16 2268.43 2997.67 2258.05 3042.22C2248.35 3083.85 2220.48 3121.27 2229.13 3167.16C2230.68 3175.38 2226.41 3185.18 2238.79 3193.64C2257.76 3157.42 2278.65 3122.66 2294.42 3085.73C2306.13 3058.32 2311.28 3028.1 2319.18 2999.09C2322.32 2987.59 2325.21 2975.11 2340.77 2977.29C2355.49 2979.34 2354.89 2991.91 2357.54 3003.59C2375.01 3080.54 2346.48 3148.41 2317.48 3216.42C2290.4 3279.93 2279.58 3345.85 2293.63 3414.01C2299.86 3444.24 2309.88 3473.8 2328.76 3499.41C2335.46 3508.49 2344.85 3519.75 2333.15 3530.04C2320.98 3540.75 2309.56 3530.77 2300.22 3522.77C2254.73 3483.82 2225.79 3433.3 2199.7 3380.35C2169.67 3319.43 2157.56 3253.23 2138.98 3183.05C2123.66 3231.72 2132.22 3275.9 2133.93 3322.03Z" fill="#BB9629"/>
<path d="M3455.14 849.07C3447.6 867.653 3441.76 884.087 3445.73 902.723C3450.18 923.673 3437.2 931.504 3419.75 929.076C3382.66 923.916 3347.39 911.514 3313.53 895.62C3303 890.676 3298.74 879.39 3307.69 871.532C3353.94 830.944 3357.56 770.983 3377.2 718.834C3397.78 664.204 3411.84 607.111 3428.39 550.988C3432.72 536.308 3432.6 521.461 3428.42 506.352C3421.53 481.503 3433.63 468.75 3459.88 476.531C3494.71 486.854 3528.09 501.951 3562.72 513.018C3599.93 524.908 3638.19 534.217 3669.12 559.642C3688.33 575.433 3705.15 593.763 3719.75 614.175C3738.33 640.157 3737.81 668.643 3726.3 695.246C3708.8 735.646 3683.88 772.232 3642.68 792.063C3606.54 809.453 3612.11 840.218 3617.95 867.708C3625.7 904.17 3626.64 941.832 3638.62 977.493C3644.63 995.419 3635.77 1009.35 3618.12 1002.68C3585.93 990.516 3551.02 985.709 3521.23 966.76C3506.1 957.128 3498.67 946.867 3509.75 929.925C3519.49 915.039 3515.02 899.097 3513.4 883.301C3510.41 854.154 3513.56 824.618 3507.69 795.618C3505.85 786.559 3504.41 777.519 3493.23 776.02C3481.93 774.506 3473.44 780.442 3470.3 790.386C3464.44 808.936 3460.47 828.08 3455.14 849.07ZM3526.11 620.709C3522.84 634.367 3520.06 648.173 3516.16 661.651C3510.25 682.086 3520.9 691.928 3538.43 696.186C3547.66 698.429 3557.66 697.849 3567.32 697.926C3588.75 698.098 3605.25 690.736 3611.41 668.068C3617.36 646.174 3606.47 630.896 3588.93 622.414C3570.18 613.346 3550.58 591.177 3526.11 620.709Z" fill="#B53E2B"/>
<path d="M1976.55 898.542C1955.34 872.138 1936.36 846.379 1912.83 824.464C1903.11 815.413 1892.54 807.164 1879.98 815.463C1866.44 824.411 1876.19 835.689 1880.53 846.066C1895.21 881.181 1897.72 920.385 1917.75 953.937C1924.19 964.713 1916.66 975.463 1905.82 979.867C1877.04 991.557 1848.09 1002.99 1818.56 1012.54C1802.27 1017.81 1790.49 1008.12 1793.64 991.732C1802.13 947.556 1784.6 908.221 1768.49 870.921C1741.3 807.947 1726.65 741.077 1701.34 677.752C1699.05 672.012 1699.44 662.961 1695.46 660.484C1672.2 646.023 1665.12 628.601 1662.62 627.101C1659.68 619.779 1660.12 614 1660.12 610.101C1660.12 602.072 1659.5 608 1664.5 596.5C1674 588.5 1670 588.5 1678 588.5C1685.5 587.383 1682 582.814 1702.91 582.814C1718.92 587.951 1733.33 575.297 1748.41 570.72C1775.55 562.486 1801.99 551.981 1828.98 543.24C1866.03 531.241 1903.6 527.552 1941.74 538.601C2020.2 561.33 2040.9 667.597 2001.98 721.287C1977.57 754.965 1978.88 756.66 2008.22 786.34C2039.92 818.397 2068.64 853.669 2110.83 874.116C2128.35 882.608 2126.92 899.759 2109.13 908.716C2080.48 923.147 2049.3 930.995 2018.44 939.152C2007.01 942.172 1997.74 936.071 1991.86 925.741C1987.03 917.251 1982.37 908.666 1976.55 898.542ZM1832.83 719.161C1857.44 727.421 1898.04 709.415 1907.96 685.846C1921.35 654.005 1900.89 626.276 1865.89 628.84C1816.3 632.473 1806.36 646.991 1821.8 693.612C1824.31 701.165 1827.62 708.451 1832.83 719.161Z" fill="#B53E2B"/>
<path d="M2112.14 481.937C2097.91 462.942 2108.56 453.412 2123.78 448.934C2145 442.69 2166.87 436.217 2188.73 435.078C2245.19 432.139 2301.18 423.953 2358.39 429.169C2443.25 436.907 2471.5 528.944 2425.2 593.798C2421.12 599.507 2416.5 604.829 2411.55 611.067C2420.06 624.86 2433.17 632.604 2444.95 641.591C2480.02 668.342 2495.87 703.963 2486.85 746.776C2477.24 792.327 2453.15 826.75 2405.5 843.414C2340.95 865.987 2272.24 862.767 2206.91 879.71C2186.06 885.115 2172.22 871.852 2178.69 854.034C2193.76 812.554 2180.91 771.961 2172.5 733.441C2158.85 670.907 2148.92 608.006 2140.85 544.788C2137.75 520.468 2130.84 500.168 2112.14 481.937ZM2347.49 566.487C2351.95 550.923 2357.94 534.03 2340.81 523.035C2316.8 507.615 2288.81 508.161 2263.61 516.156C2239.41 523.833 2255.43 546.731 2253.82 562.907C2253.3 568.159 2253.96 573.542 2254.21 578.859C2255.03 595.736 2265.07 603.519 2280.62 601.033C2305.12 597.115 2329.82 592.205 2347.49 566.487ZM2319.69 768.868C2328.47 767.852 2337.73 768.27 2345.95 765.545C2367.93 758.251 2381.07 745.306 2380.26 718.886C2379.5 694.244 2363.81 686.683 2345.75 681.693C2326.21 676.294 2307.28 683.795 2289.15 690.833C2280.43 694.216 2279.23 702.651 2280.64 711.117C2282.23 720.699 2285.28 730.179 2285.7 739.79C2286.54 759.179 2294.97 769.658 2319.69 768.868Z" fill="#B53E2B"/>
<path d="M1015.29 1210.73C980.241 1173.25 951.979 1131.79 905.941 1108.05C886.895 1098.23 897.303 1083.67 909.85 1074.41C951.997 1043.29 992.355 1010.02 1032.08 975.895C1045.45 964.408 1059.71 953.429 1075.03 944.836C1129.66 914.192 1213.24 948.391 1230.16 1006.98C1235.39 1025.09 1233.06 1042.31 1227.3 1059.26C1220.03 1080.62 1227.51 1089.45 1249.34 1088.89C1284.59 1087.98 1315.29 1100.65 1342.85 1121.73C1394.33 1161.11 1399.14 1211.07 1360.1 1262.76C1333.26 1298.3 1295.54 1320.57 1263.65 1349.84C1240.77 1370.85 1217.7 1391.75 1193.47 1411.14C1170.05 1429.88 1162.22 1425.75 1152.36 1398.32C1136.1 1353.05 1100.72 1320.47 1072.21 1283.38C1053.85 1259.49 1035.03 1235.96 1015.29 1210.73ZM1209.44 1274.68C1230.4 1273.64 1242.47 1259.4 1254.05 1244.53C1272.73 1220.55 1272.65 1203.83 1253.95 1183.23C1238.53 1166.24 1207.59 1162.22 1188.58 1176.71C1174.4 1187.53 1152.78 1197.77 1161.69 1220.31C1170.25 1241.95 1180.65 1264.72 1209.44 1274.68ZM1062.59 1111.87C1074.11 1125.38 1082.54 1147.93 1105.98 1135.19C1126.46 1124.06 1142.29 1106.05 1148.66 1082.96C1154.1 1063.23 1145.15 1047.27 1126.16 1040.5C1098.73 1030.71 1081.84 1052.01 1063.46 1066.09C1047.6 1078.23 1050.72 1093.65 1062.59 1111.87Z" fill="black"/>
<path d="M1015.29 1210.73C980.241 1173.25 951.979 1131.79 905.941 1108.05C886.895 1098.23 897.303 1083.67 909.85 1074.41C951.997 1043.29 992.355 1010.02 1032.08 975.895C1045.45 964.408 1059.71 953.429 1075.03 944.836C1129.66 914.192 1213.24 948.391 1230.16 1006.98C1235.39 1025.09 1233.06 1042.31 1227.3 1059.26C1220.03 1080.62 1227.51 1089.45 1249.34 1088.89C1284.59 1087.98 1315.29 1100.65 1342.85 1121.73C1394.33 1161.11 1399.14 1211.07 1360.1 1262.76C1333.26 1298.3 1295.54 1320.57 1263.65 1349.84C1240.77 1370.85 1217.7 1391.75 1193.47 1411.14C1170.05 1429.88 1162.22 1425.75 1152.36 1398.32C1136.1 1353.05 1100.72 1320.47 1072.21 1283.38C1053.85 1259.49 1035.03 1235.96 1015.29 1210.73ZM1209.44 1274.68C1230.4 1273.64 1242.47 1259.4 1254.05 1244.53C1272.73 1220.55 1272.65 1203.83 1253.95 1183.23C1238.53 1166.24 1207.59 1162.22 1188.58 1176.71C1174.4 1187.53 1152.78 1197.77 1161.69 1220.31C1170.25 1241.95 1180.65 1264.72 1209.44 1274.68ZM1062.59 1111.87C1074.11 1125.38 1082.54 1147.93 1105.98 1135.19C1126.46 1124.06 1142.29 1106.05 1148.66 1082.96C1154.1 1063.23 1145.15 1047.27 1126.16 1040.5C1098.73 1030.71 1081.84 1052.01 1063.46 1066.09C1047.6 1078.23 1050.72 1093.65 1062.59 1111.87Z" fill="black"/>
<path d="M1015.29 1210.73C980.241 1173.25 951.979 1131.79 905.941 1108.05C886.895 1098.23 897.303 1083.67 909.85 1074.41C951.997 1043.29 992.355 1010.02 1032.08 975.895C1045.45 964.408 1059.71 953.429 1075.03 944.836C1129.66 914.192 1213.24 948.391 1230.16 1006.98C1235.39 1025.09 1233.06 1042.31 1227.3 1059.26C1220.03 1080.62 1227.51 1089.45 1249.34 1088.89C1284.59 1087.98 1315.29 1100.65 1342.85 1121.73C1394.33 1161.11 1399.14 1211.07 1360.1 1262.76C1333.26 1298.3 1295.54 1320.57 1263.65 1349.84C1240.77 1370.85 1217.7 1391.75 1193.47 1411.14C1170.05 1429.88 1162.22 1425.75 1152.36 1398.32C1136.1 1353.05 1100.72 1320.47 1072.21 1283.38C1053.85 1259.49 1035.03 1235.96 1015.29 1210.73ZM1209.44 1274.68C1230.4 1273.64 1242.47 1259.4 1254.05 1244.53C1272.73 1220.55 1272.65 1203.83 1253.95 1183.23C1238.53 1166.24 1207.59 1162.22 1188.58 1176.71C1174.4 1187.53 1152.78 1197.77 1161.69 1220.31C1170.25 1241.95 1180.65 1264.72 1209.44 1274.68ZM1062.59 1111.87C1074.11 1125.38 1082.54 1147.93 1105.98 1135.19C1126.46 1124.06 1142.29 1106.05 1148.66 1082.96C1154.1 1063.23 1145.15 1047.27 1126.16 1040.5C1098.73 1030.71 1081.84 1052.01 1063.46 1066.09C1047.6 1078.23 1050.72 1093.65 1062.59 1111.87Z" fill="black"/>
<path d="M1015.29 1210.73C980.241 1173.25 951.979 1131.79 905.941 1108.05C886.895 1098.23 897.303 1083.67 909.85 1074.41C951.997 1043.29 992.355 1010.02 1032.08 975.895C1045.45 964.408 1059.71 953.429 1075.03 944.836C1129.66 914.192 1213.24 948.391 1230.16 1006.98C1235.39 1025.09 1233.06 1042.31 1227.3 1059.26C1220.03 1080.62 1227.51 1089.45 1249.34 1088.89C1284.59 1087.98 1315.29 1100.65 1342.85 1121.73C1394.33 1161.11 1399.14 1211.07 1360.1 1262.76C1333.26 1298.3 1295.54 1320.57 1263.65 1349.84C1240.77 1370.85 1217.7 1391.75 1193.47 1411.14C1170.05 1429.88 1162.22 1425.75 1152.36 1398.32C1136.1 1353.05 1100.72 1320.47 1072.21 1283.38C1053.85 1259.49 1035.03 1235.96 1015.29 1210.73ZM1209.44 1274.68C1230.4 1273.64 1242.47 1259.4 1254.05 1244.53C1272.73 1220.55 1272.65 1203.83 1253.95 1183.23C1238.53 1166.24 1207.59 1162.22 1188.58 1176.71C1174.4 1187.53 1152.78 1197.77 1161.69 1220.31C1170.25 1241.95 1180.65 1264.72 1209.44 1274.68ZM1062.59 1111.87C1074.11 1125.38 1082.54 1147.93 1105.98 1135.19C1126.46 1124.06 1142.29 1106.05 1148.66 1082.96C1154.1 1063.23 1145.15 1047.27 1126.16 1040.5C1098.73 1030.71 1081.84 1052.01 1063.46 1066.09C1047.6 1078.23 1050.72 1093.65 1062.59 1111.87Z" fill="black"/>
<path d="M1015.29 1210.73C980.241 1173.25 951.979 1131.79 905.941 1108.05C886.895 1098.23 897.303 1083.67 909.85 1074.41C951.997 1043.29 992.355 1010.02 1032.08 975.895C1045.45 964.408 1059.71 953.429 1075.03 944.836C1129.66 914.192 1213.24 948.391 1230.16 1006.98C1235.39 1025.09 1233.06 1042.31 1227.3 1059.26C1220.03 1080.62 1227.51 1089.45 1249.34 1088.89C1284.59 1087.98 1315.29 1100.65 1342.85 1121.73C1394.33 1161.11 1399.14 1211.07 1360.1 1262.76C1333.26 1298.3 1295.54 1320.57 1263.65 1349.84C1240.77 1370.85 1217.7 1391.75 1193.47 1411.14C1170.05 1429.88 1162.22 1425.75 1152.36 1398.32C1136.1 1353.05 1100.72 1320.47 1072.21 1283.38C1053.85 1259.49 1035.03 1235.96 1015.29 1210.73ZM1209.44 1274.68C1230.4 1273.64 1242.47 1259.4 1254.05 1244.53C1272.73 1220.55 1272.65 1203.83 1253.95 1183.23C1238.53 1166.24 1207.59 1162.22 1188.58 1176.71C1174.4 1187.53 1152.78 1197.77 1161.69 1220.31C1170.25 1241.95 1180.65 1264.72 1209.44 1274.68ZM1062.59 1111.87C1074.11 1125.38 1082.54 1147.93 1105.98 1135.19C1126.46 1124.06 1142.29 1106.05 1148.66 1082.96C1154.1 1063.23 1145.15 1047.27 1126.16 1040.5C1098.73 1030.71 1081.84 1052.01 1063.46 1066.09C1047.6 1078.23 1050.72 1093.65 1062.59 1111.87Z" fill="black"/>
<path d="M1015.29 1210.73C980.241 1173.25 951.979 1131.79 905.941 1108.05C886.895 1098.23 897.303 1083.67 909.85 1074.41C951.997 1043.29 992.355 1010.02 1032.08 975.895C1045.45 964.408 1059.71 953.429 1075.03 944.836C1129.66 914.192 1213.24 948.391 1230.16 1006.98C1235.39 1025.09 1233.06 1042.31 1227.3 1059.26C1220.03 1080.62 1227.51 1089.45 1249.34 1088.89C1284.59 1087.98 1315.29 1100.65 1342.85 1121.73C1394.33 1161.11 1399.14 1211.07 1360.1 1262.76C1333.26 1298.3 1295.54 1320.57 1263.65 1349.84C1240.77 1370.85 1217.7 1391.75 1193.47 1411.14C1170.05 1429.88 1162.22 1425.75 1152.36 1398.32C1136.1 1353.05 1100.72 1320.47 1072.21 1283.38C1053.85 1259.49 1035.03 1235.96 1015.29 1210.73ZM1209.44 1274.68C1230.4 1273.64 1242.47 1259.4 1254.05 1244.53C1272.73 1220.55 1272.65 1203.83 1253.95 1183.23C1238.53 1166.24 1207.59 1162.22 1188.58 1176.71C1174.4 1187.53 1152.78 1197.77 1161.69 1220.31C1170.25 1241.95 1180.65 1264.72 1209.44 1274.68ZM1062.59 1111.87C1074.11 1125.38 1082.54 1147.93 1105.98 1135.19C1126.46 1124.06 1142.29 1106.05 1148.66 1082.96C1154.1 1063.23 1145.15 1047.27 1126.16 1040.5C1098.73 1030.71 1081.84 1052.01 1063.46 1066.09C1047.6 1078.23 1050.72 1093.65 1062.59 1111.87Z" fill="black"/>
<path d="M1015.29 1210.73C980.241 1173.25 951.979 1131.79 905.941 1108.05C886.895 1098.23 897.303 1083.67 909.85 1074.41C951.997 1043.29 992.355 1010.02 1032.08 975.895C1045.45 964.408 1059.71 953.429 1075.03 944.836C1129.66 914.192 1213.24 948.391 1230.16 1006.98C1235.39 1025.09 1233.06 1042.31 1227.3 1059.26C1220.03 1080.62 1227.51 1089.45 1249.34 1088.89C1284.59 1087.98 1315.29 1100.65 1342.85 1121.73C1394.33 1161.11 1399.14 1211.07 1360.1 1262.76C1333.26 1298.3 1295.54 1320.57 1263.65 1349.84C1240.77 1370.85 1217.7 1391.75 1193.47 1411.14C1170.05 1429.88 1162.22 1425.75 1152.36 1398.32C1136.1 1353.05 1100.72 1320.47 1072.21 1283.38C1053.85 1259.49 1035.03 1235.96 1015.29 1210.73ZM1209.44 1274.68C1230.4 1273.64 1242.47 1259.4 1254.05 1244.53C1272.73 1220.55 1272.65 1203.83 1253.95 1183.23C1238.53 1166.24 1207.59 1162.22 1188.58 1176.71C1174.4 1187.53 1152.78 1197.77 1161.69 1220.31C1170.25 1241.95 1180.65 1264.72 1209.44 1274.68ZM1062.59 1111.87C1074.11 1125.38 1082.54 1147.93 1105.98 1135.19C1126.46 1124.06 1142.29 1106.05 1148.66 1082.96C1154.1 1063.23 1145.15 1047.27 1126.16 1040.5C1098.73 1030.71 1081.84 1052.01 1063.46 1066.09C1047.6 1078.23 1050.72 1093.65 1062.59 1111.87Z" fill="black"/>
<path d="M1015.29 1210.73C980.241 1173.25 951.979 1131.79 905.941 1108.05C886.895 1098.23 897.303 1083.67 909.85 1074.41C951.997 1043.29 992.355 1010.02 1032.08 975.895C1045.45 964.408 1059.71 953.429 1075.03 944.836C1129.66 914.192 1213.24 948.391 1230.16 1006.98C1235.39 1025.09 1233.06 1042.31 1227.3 1059.26C1220.03 1080.62 1227.51 1089.45 1249.34 1088.89C1284.59 1087.98 1315.29 1100.65 1342.85 1121.73C1394.33 1161.11 1399.14 1211.07 1360.1 1262.76C1333.26 1298.3 1295.54 1320.57 1263.65 1349.84C1240.77 1370.85 1217.7 1391.75 1193.47 1411.14C1170.05 1429.88 1162.22 1425.75 1152.36 1398.32C1136.1 1353.05 1100.72 1320.47 1072.21 1283.38C1053.85 1259.49 1035.03 1235.96 1015.29 1210.73ZM1209.44 1274.68C1230.4 1273.64 1242.47 1259.4 1254.05 1244.53C1272.73 1220.55 1272.65 1203.83 1253.95 1183.23C1238.53 1166.24 1207.59 1162.22 1188.58 1176.71C1174.4 1187.53 1152.78 1197.77 1161.69 1220.31C1170.25 1241.95 1180.65 1264.72 1209.44 1274.68ZM1062.59 1111.87C1074.11 1125.38 1082.54 1147.93 1105.98 1135.19C1126.46 1124.06 1142.29 1106.05 1148.66 1082.96C1154.1 1063.23 1145.15 1047.27 1126.16 1040.5C1098.73 1030.71 1081.84 1052.01 1063.46 1066.09C1047.6 1078.23 1050.72 1093.65 1062.59 1111.87Z" fill="black"/>
<path d="M1015.29 1210.73C980.241 1173.25 951.979 1131.79 905.941 1108.05C886.895 1098.23 897.303 1083.67 909.85 1074.41C951.997 1043.29 992.355 1010.02 1032.08 975.895C1045.45 964.408 1059.71 953.429 1075.03 944.836C1129.66 914.192 1213.24 948.391 1230.16 1006.98C1235.39 1025.09 1233.06 1042.31 1227.3 1059.26C1220.03 1080.62 1227.51 1089.45 1249.34 1088.89C1284.59 1087.98 1315.29 1100.65 1342.85 1121.73C1394.33 1161.11 1399.14 1211.07 1360.1 1262.76C1333.26 1298.3 1295.54 1320.57 1263.65 1349.84C1240.77 1370.85 1217.7 1391.75 1193.47 1411.14C1170.05 1429.88 1162.22 1425.75 1152.36 1398.32C1136.1 1353.05 1100.72 1320.47 1072.21 1283.38C1053.85 1259.49 1035.03 1235.96 1015.29 1210.73ZM1209.44 1274.68C1230.4 1273.64 1242.47 1259.4 1254.05 1244.53C1272.73 1220.55 1272.65 1203.83 1253.95 1183.23C1238.53 1166.24 1207.59 1162.22 1188.58 1176.71C1174.4 1187.53 1152.78 1197.77 1161.69 1220.31C1170.25 1241.95 1180.65 1264.72 1209.44 1274.68ZM1062.59 1111.87C1074.11 1125.38 1082.54 1147.93 1105.98 1135.19C1126.46 1124.06 1142.29 1106.05 1148.66 1082.96C1154.1 1063.23 1145.15 1047.27 1126.16 1040.5C1098.73 1030.71 1081.84 1052.01 1063.46 1066.09C1047.6 1078.23 1050.72 1093.65 1062.59 1111.87Z" fill="black"/>
<path d="M1015.29 1210.73C980.241 1173.25 951.979 1131.79 905.941 1108.05C886.895 1098.23 897.303 1083.67 909.85 1074.41C951.997 1043.29 992.355 1010.02 1032.08 975.895C1045.45 964.408 1059.71 953.429 1075.03 944.836C1129.66 914.192 1213.24 948.391 1230.16 1006.98C1235.39 1025.09 1233.06 1042.31 1227.3 1059.26C1220.03 1080.62 1227.51 1089.45 1249.34 1088.89C1284.59 1087.98 1315.29 1100.65 1342.85 1121.73C1394.33 1161.11 1399.14 1211.07 1360.1 1262.76C1333.26 1298.3 1295.54 1320.57 1263.65 1349.84C1240.77 1370.85 1217.7 1391.75 1193.47 1411.14C1170.05 1429.88 1162.22 1425.75 1152.36 1398.32C1136.1 1353.05 1100.72 1320.47 1072.21 1283.38C1053.85 1259.49 1035.03 1235.96 1015.29 1210.73ZM1209.44 1274.68C1230.4 1273.64 1242.47 1259.4 1254.05 1244.53C1272.73 1220.55 1272.65 1203.83 1253.95 1183.23C1238.53 1166.24 1207.59 1162.22 1188.58 1176.71C1174.4 1187.53 1152.78 1197.77 1161.69 1220.31C1170.25 1241.95 1180.65 1264.72 1209.44 1274.68ZM1062.59 1111.87C1074.11 1125.38 1082.54 1147.93 1105.98 1135.19C1126.46 1124.06 1142.29 1106.05 1148.66 1082.96C1154.1 1063.23 1145.15 1047.27 1126.16 1040.5C1098.73 1030.71 1081.84 1052.01 1063.46 1066.09C1047.6 1078.23 1050.72 1093.65 1062.59 1111.87Z" fill="black"/>
<path d="M1015.29 1210.73C980.241 1173.25 951.979 1131.79 905.941 1108.05C886.895 1098.23 897.303 1083.67 909.85 1074.41C951.997 1043.29 992.355 1010.02 1032.08 975.895C1045.45 964.408 1059.71 953.429 1075.03 944.836C1129.66 914.192 1213.24 948.391 1230.16 1006.98C1235.39 1025.09 1233.06 1042.31 1227.3 1059.26C1220.03 1080.62 1227.51 1089.45 1249.34 1088.89C1284.59 1087.98 1315.29 1100.65 1342.85 1121.73C1394.33 1161.11 1399.14 1211.07 1360.1 1262.76C1333.26 1298.3 1295.54 1320.57 1263.65 1349.84C1240.77 1370.85 1217.7 1391.75 1193.47 1411.14C1170.05 1429.88 1162.22 1425.75 1152.36 1398.32C1136.1 1353.05 1100.72 1320.47 1072.21 1283.38C1053.85 1259.49 1035.03 1235.96 1015.29 1210.73ZM1209.44 1274.68C1230.4 1273.64 1242.47 1259.4 1254.05 1244.53C1272.73 1220.55 1272.65 1203.83 1253.95 1183.23C1238.53 1166.24 1207.59 1162.22 1188.58 1176.71C1174.4 1187.53 1152.78 1197.77 1161.69 1220.31C1170.25 1241.95 1180.65 1264.72 1209.44 1274.68ZM1062.59 1111.87C1074.11 1125.38 1082.54 1147.93 1105.98 1135.19C1126.46 1124.06 1142.29 1106.05 1148.66 1082.96C1154.1 1063.23 1145.15 1047.27 1126.16 1040.5C1098.73 1030.71 1081.84 1052.01 1063.46 1066.09C1047.6 1078.23 1050.72 1093.65 1062.59 1111.87Z" fill="black"/>
<path d="M1015.29 1210.73C980.241 1173.25 951.979 1131.79 905.941 1108.05C886.895 1098.23 897.303 1083.67 909.85 1074.41C951.997 1043.29 992.355 1010.02 1032.08 975.895C1045.45 964.408 1059.71 953.429 1075.03 944.836C1129.66 914.192 1213.24 948.391 1230.16 1006.98C1235.39 1025.09 1233.06 1042.31 1227.3 1059.26C1220.03 1080.62 1227.51 1089.45 1249.34 1088.89C1284.59 1087.98 1315.29 1100.65 1342.85 1121.73C1394.33 1161.11 1399.14 1211.07 1360.1 1262.76C1333.26 1298.3 1295.54 1320.57 1263.65 1349.84C1240.77 1370.85 1217.7 1391.75 1193.47 1411.14C1170.05 1429.88 1162.22 1425.75 1152.36 1398.32C1136.1 1353.05 1100.72 1320.47 1072.21 1283.38C1053.85 1259.49 1035.03 1235.96 1015.29 1210.73ZM1209.44 1274.68C1230.4 1273.64 1242.47 1259.4 1254.05 1244.53C1272.73 1220.55 1272.65 1203.83 1253.95 1183.23C1238.53 1166.24 1207.59 1162.22 1188.58 1176.71C1174.4 1187.53 1152.78 1197.77 1161.69 1220.31C1170.25 1241.95 1180.65 1264.72 1209.44 1274.68ZM1062.59 1111.87C1074.11 1125.38 1082.54 1147.93 1105.98 1135.19C1126.46 1124.06 1142.29 1106.05 1148.66 1082.96C1154.1 1063.23 1145.15 1047.27 1126.16 1040.5C1098.73 1030.71 1081.84 1052.01 1063.46 1066.09C1047.6 1078.23 1050.72 1093.65 1062.59 1111.87Z" fill="black"/>
<path d="M1015.29 1210.73C980.241 1173.25 951.979 1131.79 905.941 1108.05C886.895 1098.23 897.303 1083.67 909.85 1074.41C951.997 1043.29 992.355 1010.02 1032.08 975.895C1045.45 964.408 1059.71 953.429 1075.03 944.836C1129.66 914.192 1213.24 948.391 1230.16 1006.98C1235.39 1025.09 1233.06 1042.31 1227.3 1059.26C1220.03 1080.62 1227.51 1089.45 1249.34 1088.89C1284.59 1087.98 1315.29 1100.65 1342.85 1121.73C1394.33 1161.11 1399.14 1211.07 1360.1 1262.76C1333.26 1298.3 1295.54 1320.57 1263.65 1349.84C1240.77 1370.85 1217.7 1391.75 1193.47 1411.14C1170.05 1429.88 1162.22 1425.75 1152.36 1398.32C1136.1 1353.05 1100.72 1320.47 1072.21 1283.38C1053.85 1259.49 1035.03 1235.96 1015.29 1210.73ZM1209.44 1274.68C1230.4 1273.64 1242.47 1259.4 1254.05 1244.53C1272.73 1220.55 1272.65 1203.83 1253.95 1183.23C1238.53 1166.24 1207.59 1162.22 1188.58 1176.71C1174.4 1187.53 1152.78 1197.77 1161.69 1220.31C1170.25 1241.95 1180.65 1264.72 1209.44 1274.68ZM1062.59 1111.87C1074.11 1125.38 1082.54 1147.93 1105.98 1135.19C1126.46 1124.06 1142.29 1106.05 1148.66 1082.96C1154.1 1063.23 1145.15 1047.27 1126.16 1040.5C1098.73 1030.71 1081.84 1052.01 1063.46 1066.09C1047.6 1078.23 1050.72 1093.65 1062.59 1111.87Z" fill="black"/>
<path d="M1015.29 1210.73C980.241 1173.25 951.979 1131.79 905.941 1108.05C886.895 1098.23 897.303 1083.67 909.85 1074.41C951.997 1043.29 992.355 1010.02 1032.08 975.895C1045.45 964.408 1059.71 953.429 1075.03 944.836C1129.66 914.192 1213.24 948.391 1230.16 1006.98C1235.39 1025.09 1233.06 1042.31 1227.3 1059.26C1220.03 1080.62 1227.51 1089.45 1249.34 1088.89C1284.59 1087.98 1315.29 1100.65 1342.85 1121.73C1394.33 1161.11 1399.14 1211.07 1360.1 1262.76C1333.26 1298.3 1295.54 1320.57 1263.65 1349.84C1240.77 1370.85 1217.7 1391.75 1193.47 1411.14C1170.05 1429.88 1162.22 1425.75 1152.36 1398.32C1136.1 1353.05 1100.72 1320.47 1072.21 1283.38C1053.85 1259.49 1035.03 1235.96 1015.29 1210.73ZM1209.44 1274.68C1230.4 1273.64 1242.47 1259.4 1254.05 1244.53C1272.73 1220.55 1272.65 1203.83 1253.95 1183.23C1238.53 1166.24 1207.59 1162.22 1188.58 1176.71C1174.4 1187.53 1152.78 1197.77 1161.69 1220.31C1170.25 1241.95 1180.65 1264.72 1209.44 1274.68ZM1062.59 1111.87C1074.11 1125.38 1082.54 1147.93 1105.98 1135.19C1126.46 1124.06 1142.29 1106.05 1148.66 1082.96C1154.1 1063.23 1145.15 1047.27 1126.16 1040.5C1098.73 1030.71 1081.84 1052.01 1063.46 1066.09C1047.6 1078.23 1050.72 1093.65 1062.59 1111.87Z" fill="black"/>
<path d="M1015.29 1210.73C980.241 1173.25 951.979 1131.79 905.941 1108.05C886.895 1098.23 897.303 1083.67 909.85 1074.41C951.997 1043.29 992.355 1010.02 1032.08 975.895C1045.45 964.408 1059.71 953.429 1075.03 944.836C1129.66 914.192 1213.24 948.391 1230.16 1006.98C1235.39 1025.09 1233.06 1042.31 1227.3 1059.26C1220.03 1080.62 1227.51 1089.45 1249.34 1088.89C1284.59 1087.98 1315.29 1100.65 1342.85 1121.73C1394.33 1161.11 1399.14 1211.07 1360.1 1262.76C1333.26 1298.3 1295.54 1320.57 1263.65 1349.84C1240.77 1370.85 1217.7 1391.75 1193.47 1411.14C1170.05 1429.88 1162.22 1425.75 1152.36 1398.32C1136.1 1353.05 1100.72 1320.47 1072.21 1283.38C1053.85 1259.49 1035.03 1235.96 1015.29 1210.73ZM1209.44 1274.68C1230.4 1273.64 1242.47 1259.4 1254.05 1244.53C1272.73 1220.55 1272.65 1203.83 1253.95 1183.23C1238.53 1166.24 1207.59 1162.22 1188.58 1176.71C1174.4 1187.53 1152.78 1197.77 1161.69 1220.31C1170.25 1241.95 1180.65 1264.72 1209.44 1274.68ZM1062.59 1111.87C1074.11 1125.38 1082.54 1147.93 1105.98 1135.19C1126.46 1124.06 1142.29 1106.05 1148.66 1082.96C1154.1 1063.23 1145.15 1047.27 1126.16 1040.5C1098.73 1030.71 1081.84 1052.01 1063.46 1066.09C1047.6 1078.23 1050.72 1093.65 1062.59 1111.87Z" fill="black"/>
<path d="M1015.29 1210.73C980.241 1173.25 951.979 1131.79 905.941 1108.05C886.895 1098.23 897.303 1083.67 909.85 1074.41C951.997 1043.29 992.355 1010.02 1032.08 975.895C1045.45 964.408 1059.71 953.429 1075.03 944.836C1129.66 914.192 1213.24 948.391 1230.16 1006.98C1235.39 1025.09 1233.06 1042.31 1227.3 1059.26C1220.03 1080.62 1227.51 1089.45 1249.34 1088.89C1284.59 1087.98 1315.29 1100.65 1342.85 1121.73C1394.33 1161.11 1399.14 1211.07 1360.1 1262.76C1333.26 1298.3 1295.54 1320.57 1263.65 1349.84C1240.77 1370.85 1217.7 1391.75 1193.47 1411.14C1170.05 1429.88 1162.22 1425.75 1152.36 1398.32C1136.1 1353.05 1100.72 1320.47 1072.21 1283.38C1053.85 1259.49 1035.03 1235.96 1015.29 1210.73ZM1209.44 1274.68C1230.4 1273.64 1242.47 1259.4 1254.05 1244.53C1272.73 1220.55 1272.65 1203.83 1253.95 1183.23C1238.53 1166.24 1207.59 1162.22 1188.58 1176.71C1174.4 1187.53 1152.78 1197.77 1161.69 1220.31C1170.25 1241.95 1180.65 1264.72 1209.44 1274.68ZM1062.59 1111.87C1074.11 1125.38 1082.54 1147.93 1105.98 1135.19C1126.46 1124.06 1142.29 1106.05 1148.66 1082.96C1154.1 1063.23 1145.15 1047.27 1126.16 1040.5C1098.73 1030.71 1081.84 1052.01 1063.46 1066.09C1047.6 1078.23 1050.72 1093.65 1062.59 1111.87Z" fill="black"/>
<path d="M1015.29 1210.73C980.241 1173.25 951.979 1131.79 905.941 1108.05C886.895 1098.23 897.303 1083.67 909.85 1074.41C951.997 1043.29 992.355 1010.02 1032.08 975.895C1045.45 964.408 1059.71 953.429 1075.03 944.836C1129.66 914.192 1213.24 948.391 1230.16 1006.98C1235.39 1025.09 1233.06 1042.31 1227.3 1059.26C1220.03 1080.62 1227.51 1089.45 1249.34 1088.89C1284.59 1087.98 1315.29 1100.65 1342.85 1121.73C1394.33 1161.11 1399.14 1211.07 1360.1 1262.76C1333.26 1298.3 1295.54 1320.57 1263.65 1349.84C1240.77 1370.85 1217.7 1391.75 1193.47 1411.14C1170.05 1429.88 1162.22 1425.75 1152.36 1398.32C1136.1 1353.05 1100.72 1320.47 1072.21 1283.38C1053.85 1259.49 1035.03 1235.96 1015.29 1210.73ZM1209.44 1274.68C1230.4 1273.64 1242.47 1259.4 1254.05 1244.53C1272.73 1220.55 1272.65 1203.83 1253.95 1183.23C1238.53 1166.24 1207.59 1162.22 1188.58 1176.71C1174.4 1187.53 1152.78 1197.77 1161.69 1220.31C1170.25 1241.95 1180.65 1264.72 1209.44 1274.68ZM1062.59 1111.87C1074.11 1125.38 1082.54 1147.93 1105.98 1135.19C1126.46 1124.06 1142.29 1106.05 1148.66 1082.96C1154.1 1063.23 1145.15 1047.27 1126.16 1040.5C1098.73 1030.71 1081.84 1052.01 1063.46 1066.09C1047.6 1078.23 1050.72 1093.65 1062.59 1111.87Z" fill="black"/>
<path d="M1015.29 1210.73C980.241 1173.25 951.979 1131.79 905.941 1108.05C886.895 1098.23 897.303 1083.67 909.85 1074.41C951.997 1043.29 992.355 1010.02 1032.08 975.895C1045.45 964.408 1059.71 953.429 1075.03 944.836C1129.66 914.192 1213.24 948.391 1230.16 1006.98C1235.39 1025.09 1233.06 1042.31 1227.3 1059.26C1220.03 1080.62 1227.51 1089.45 1249.34 1088.89C1284.59 1087.98 1315.29 1100.65 1342.85 1121.73C1394.33 1161.11 1399.14 1211.07 1360.1 1262.76C1333.26 1298.3 1295.54 1320.57 1263.65 1349.84C1240.77 1370.85 1217.7 1391.75 1193.47 1411.14C1170.05 1429.88 1162.22 1425.75 1152.36 1398.32C1136.1 1353.05 1100.72 1320.47 1072.21 1283.38C1053.85 1259.49 1035.03 1235.96 1015.29 1210.73ZM1209.44 1274.68C1230.4 1273.64 1242.47 1259.4 1254.05 1244.53C1272.73 1220.55 1272.65 1203.83 1253.95 1183.23C1238.53 1166.24 1207.59 1162.22 1188.58 1176.71C1174.4 1187.53 1152.78 1197.77 1161.69 1220.31C1170.25 1241.95 1180.65 1264.72 1209.44 1274.68ZM1062.59 1111.87C1074.11 1125.38 1082.54 1147.93 1105.98 1135.19C1126.46 1124.06 1142.29 1106.05 1148.66 1082.96C1154.1 1063.23 1145.15 1047.27 1126.16 1040.5C1098.73 1030.71 1081.84 1052.01 1063.46 1066.09C1047.6 1078.23 1050.72 1093.65 1062.59 1111.87Z" fill="black"/>
<path d="M1015.29 1210.73C980.241 1173.25 951.979 1131.79 905.941 1108.05C886.895 1098.23 897.303 1083.67 909.85 1074.41C951.997 1043.29 992.355 1010.02 1032.08 975.895C1045.45 964.408 1059.71 953.429 1075.03 944.836C1129.66 914.192 1213.24 948.391 1230.16 1006.98C1235.39 1025.09 1233.06 1042.31 1227.3 1059.26C1220.03 1080.62 1227.51 1089.45 1249.34 1088.89C1284.59 1087.98 1315.29 1100.65 1342.85 1121.73C1394.33 1161.11 1399.14 1211.07 1360.1 1262.76C1333.26 1298.3 1295.54 1320.57 1263.65 1349.84C1240.77 1370.85 1217.7 1391.75 1193.47 1411.14C1170.05 1429.88 1162.22 1425.75 1152.36 1398.32C1136.1 1353.05 1100.72 1320.47 1072.21 1283.38C1053.85 1259.49 1035.03 1235.96 1015.29 1210.73ZM1209.44 1274.68C1230.4 1273.64 1242.47 1259.4 1254.05 1244.53C1272.73 1220.55 1272.65 1203.83 1253.95 1183.23C1238.53 1166.24 1207.59 1162.22 1188.58 1176.71C1174.4 1187.53 1152.78 1197.77 1161.69 1220.31C1170.25 1241.95 1180.65 1264.72 1209.44 1274.68ZM1062.59 1111.87C1074.11 1125.38 1082.54 1147.93 1105.98 1135.19C1126.46 1124.06 1142.29 1106.05 1148.66 1082.96C1154.1 1063.23 1145.15 1047.27 1126.16 1040.5C1098.73 1030.71 1081.84 1052.01 1063.46 1066.09C1047.6 1078.23 1050.72 1093.65 1062.59 1111.87Z" fill="black"/>
<path d="M1015.29 1210.73C980.241 1173.25 951.979 1131.79 905.941 1108.05C886.895 1098.23 897.303 1083.67 909.85 1074.41C951.997 1043.29 992.355 1010.02 1032.08 975.895C1045.45 964.408 1059.71 953.429 1075.03 944.836C1129.66 914.192 1213.24 948.391 1230.16 1006.98C1235.39 1025.09 1233.06 1042.31 1227.3 1059.26C1220.03 1080.62 1227.51 1089.45 1249.34 1088.89C1284.59 1087.98 1315.29 1100.65 1342.85 1121.73C1394.33 1161.11 1399.14 1211.07 1360.1 1262.76C1333.26 1298.3 1295.54 1320.57 1263.65 1349.84C1240.77 1370.85 1217.7 1391.75 1193.47 1411.14C1170.05 1429.88 1162.22 1425.75 1152.36 1398.32C1136.1 1353.05 1100.72 1320.47 1072.21 1283.38C1053.85 1259.49 1035.03 1235.96 1015.29 1210.73ZM1209.44 1274.68C1230.4 1273.64 1242.47 1259.4 1254.05 1244.53C1272.73 1220.55 1272.65 1203.83 1253.95 1183.23C1238.53 1166.24 1207.59 1162.22 1188.58 1176.71C1174.4 1187.53 1152.78 1197.77 1161.69 1220.31C1170.25 1241.95 1180.65 1264.72 1209.44 1274.68ZM1062.59 1111.87C1074.11 1125.38 1082.54 1147.93 1105.98 1135.19C1126.46 1124.06 1142.29 1106.05 1148.66 1082.96C1154.1 1063.23 1145.15 1047.27 1126.16 1040.5C1098.73 1030.71 1081.84 1052.01 1063.46 1066.09C1047.6 1078.23 1050.72 1093.65 1062.59 1111.87Z" fill="black"/>
<path d="M1015.29 1210.73C980.241 1173.25 951.979 1131.79 905.941 1108.05C886.895 1098.23 897.303 1083.67 909.85 1074.41C951.997 1043.29 992.355 1010.02 1032.08 975.895C1045.45 964.408 1059.71 953.429 1075.03 944.836C1129.66 914.192 1213.24 948.391 1230.16 1006.98C1235.39 1025.09 1233.06 1042.31 1227.3 1059.26C1220.03 1080.62 1227.51 1089.45 1249.34 1088.89C1284.59 1087.98 1315.29 1100.65 1342.85 1121.73C1394.33 1161.11 1399.14 1211.07 1360.1 1262.76C1333.26 1298.3 1295.54 1320.57 1263.65 1349.84C1240.77 1370.85 1217.7 1391.75 1193.47 1411.14C1170.05 1429.88 1162.22 1425.75 1152.36 1398.32C1136.1 1353.05 1100.72 1320.47 1072.21 1283.38C1053.85 1259.49 1035.03 1235.96 1015.29 1210.73ZM1209.44 1274.68C1230.4 1273.64 1242.47 1259.4 1254.05 1244.53C1272.73 1220.55 1272.65 1203.83 1253.95 1183.23C1238.53 1166.24 1207.59 1162.22 1188.58 1176.71C1174.4 1187.53 1152.78 1197.77 1161.69 1220.31C1170.25 1241.95 1180.65 1264.72 1209.44 1274.68ZM1062.59 1111.87C1074.11 1125.38 1082.54 1147.93 1105.98 1135.19C1126.46 1124.06 1142.29 1106.05 1148.66 1082.96C1154.1 1063.23 1145.15 1047.27 1126.16 1040.5C1098.73 1030.71 1081.84 1052.01 1063.46 1066.09C1047.6 1078.23 1050.72 1093.65 1062.59 1111.87Z" fill="black"/>
<path d="M1015.29 1210.73C980.241 1173.25 951.979 1131.79 905.941 1108.05C886.895 1098.23 897.303 1083.67 909.85 1074.41C951.997 1043.29 992.355 1010.02 1032.08 975.895C1045.45 964.408 1059.71 953.429 1075.03 944.836C1129.66 914.192 1213.24 948.391 1230.16 1006.98C1235.39 1025.09 1233.06 1042.31 1227.3 1059.26C1220.03 1080.62 1227.51 1089.45 1249.34 1088.89C1284.59 1087.98 1315.29 1100.65 1342.85 1121.73C1394.33 1161.11 1399.14 1211.07 1360.1 1262.76C1333.26 1298.3 1295.54 1320.57 1263.65 1349.84C1240.77 1370.85 1217.7 1391.75 1193.47 1411.14C1170.05 1429.88 1162.22 1425.75 1152.36 1398.32C1136.1 1353.05 1100.72 1320.47 1072.21 1283.38C1053.85 1259.49 1035.03 1235.96 1015.29 1210.73ZM1209.44 1274.68C1230.4 1273.64 1242.47 1259.4 1254.05 1244.53C1272.73 1220.55 1272.65 1203.83 1253.95 1183.23C1238.53 1166.24 1207.59 1162.22 1188.58 1176.71C1174.4 1187.53 1152.78 1197.77 1161.69 1220.31C1170.25 1241.95 1180.65 1264.72 1209.44 1274.68ZM1062.59 1111.87C1074.11 1125.38 1082.54 1147.93 1105.98 1135.19C1126.46 1124.06 1142.29 1106.05 1148.66 1082.96C1154.1 1063.23 1145.15 1047.27 1126.16 1040.5C1098.73 1030.71 1081.84 1052.01 1063.46 1066.09C1047.6 1078.23 1050.72 1093.65 1062.59 1111.87Z" fill="black"/>
<path d="M1015.29 1210.73C980.241 1173.25 951.979 1131.79 905.941 1108.05C886.895 1098.23 897.303 1083.67 909.85 1074.41C951.997 1043.29 992.355 1010.02 1032.08 975.895C1045.45 964.408 1059.71 953.429 1075.03 944.836C1129.66 914.192 1213.24 948.391 1230.16 1006.98C1235.39 1025.09 1233.06 1042.31 1227.3 1059.26C1220.03 1080.62 1227.51 1089.45 1249.34 1088.89C1284.59 1087.98 1315.29 1100.65 1342.85 1121.73C1394.33 1161.11 1399.14 1211.07 1360.1 1262.76C1333.26 1298.3 1295.54 1320.57 1263.65 1349.84C1240.77 1370.85 1217.7 1391.75 1193.47 1411.14C1170.05 1429.88 1162.22 1425.75 1152.36 1398.32C1136.1 1353.05 1100.72 1320.47 1072.21 1283.38C1053.85 1259.49 1035.03 1235.96 1015.29 1210.73ZM1209.44 1274.68C1230.4 1273.64 1242.47 1259.4 1254.05 1244.53C1272.73 1220.55 1272.65 1203.83 1253.95 1183.23C1238.53 1166.24 1207.59 1162.22 1188.58 1176.71C1174.4 1187.53 1152.78 1197.77 1161.69 1220.31C1170.25 1241.95 1180.65 1264.72 1209.44 1274.68ZM1062.59 1111.87C1074.11 1125.38 1082.54 1147.93 1105.98 1135.19C1126.46 1124.06 1142.29 1106.05 1148.66 1082.96C1154.1 1063.23 1145.15 1047.27 1126.16 1040.5C1098.73 1030.71 1081.84 1052.01 1063.46 1066.09C1047.6 1078.23 1050.72 1093.65 1062.59 1111.87Z" fill="black"/>
<path d="M1015.29 1210.73C980.241 1173.25 951.979 1131.79 905.941 1108.05C886.895 1098.23 897.303 1083.67 909.85 1074.41C951.997 1043.29 992.355 1010.02 1032.08 975.895C1045.45 964.408 1059.71 953.429 1075.03 944.836C1129.66 914.192 1213.24 948.391 1230.16 1006.98C1235.39 1025.09 1233.06 1042.31 1227.3 1059.26C1220.03 1080.62 1227.51 1089.45 1249.34 1088.89C1284.59 1087.98 1315.29 1100.65 1342.85 1121.73C1394.33 1161.11 1399.14 1211.07 1360.1 1262.76C1333.26 1298.3 1295.54 1320.57 1263.65 1349.84C1240.77 1370.85 1217.7 1391.75 1193.47 1411.14C1170.05 1429.88 1162.22 1425.75 1152.36 1398.32C1136.1 1353.05 1100.72 1320.47 1072.21 1283.38C1053.85 1259.49 1035.03 1235.96 1015.29 1210.73ZM1209.44 1274.68C1230.4 1273.64 1242.47 1259.4 1254.05 1244.53C1272.73 1220.55 1272.65 1203.83 1253.95 1183.23C1238.53 1166.24 1207.59 1162.22 1188.58 1176.71C1174.4 1187.53 1152.78 1197.77 1161.69 1220.31C1170.25 1241.95 1180.65 1264.72 1209.44 1274.68ZM1062.59 1111.87C1074.11 1125.38 1082.54 1147.93 1105.98 1135.19C1126.46 1124.06 1142.29 1106.05 1148.66 1082.96C1154.1 1063.23 1145.15 1047.27 1126.16 1040.5C1098.73 1030.71 1081.84 1052.01 1063.46 1066.09C1047.6 1078.23 1050.72 1093.65 1062.59 1111.87Z" fill="black"/>
<path d="M1015.29 1210.73C980.241 1173.25 951.979 1131.79 905.941 1108.05C886.895 1098.23 897.303 1083.67 909.85 1074.41C951.997 1043.29 992.355 1010.02 1032.08 975.895C1045.45 964.408 1059.71 953.429 1075.03 944.836C1129.66 914.192 1213.24 948.391 1230.16 1006.98C1235.39 1025.09 1233.06 1042.31 1227.3 1059.26C1220.03 1080.62 1227.51 1089.45 1249.34 1088.89C1284.59 1087.98 1315.29 1100.65 1342.85 1121.73C1394.33 1161.11 1399.14 1211.07 1360.1 1262.76C1333.26 1298.3 1295.54 1320.57 1263.65 1349.84C1240.77 1370.85 1217.7 1391.75 1193.47 1411.14C1170.05 1429.88 1162.22 1425.75 1152.36 1398.32C1136.1 1353.05 1100.72 1320.47 1072.21 1283.38C1053.85 1259.49 1035.03 1235.96 1015.29 1210.73ZM1209.44 1274.68C1230.4 1273.64 1242.47 1259.4 1254.05 1244.53C1272.73 1220.55 1272.65 1203.83 1253.95 1183.23C1238.53 1166.24 1207.59 1162.22 1188.58 1176.71C1174.4 1187.53 1152.78 1197.77 1161.69 1220.31C1170.25 1241.95 1180.65 1264.72 1209.44 1274.68ZM1062.59 1111.87C1074.11 1125.38 1082.54 1147.93 1105.98 1135.19C1126.46 1124.06 1142.29 1106.05 1148.66 1082.96C1154.1 1063.23 1145.15 1047.27 1126.16 1040.5C1098.73 1030.71 1081.84 1052.01 1063.46 1066.09C1047.6 1078.23 1050.72 1093.65 1062.59 1111.87Z" fill="black"/>
<path d="M1015.29 1210.73C980.241 1173.25 951.979 1131.79 905.941 1108.05C886.895 1098.23 897.303 1083.67 909.85 1074.41C951.997 1043.29 992.355 1010.02 1032.08 975.895C1045.45 964.408 1059.71 953.429 1075.03 944.836C1129.66 914.192 1213.24 948.391 1230.16 1006.98C1235.39 1025.09 1233.06 1042.31 1227.3 1059.26C1220.03 1080.62 1227.51 1089.45 1249.34 1088.89C1284.59 1087.98 1315.29 1100.65 1342.85 1121.73C1394.33 1161.11 1399.14 1211.07 1360.1 1262.76C1333.26 1298.3 1295.54 1320.57 1263.65 1349.84C1240.77 1370.85 1217.7 1391.75 1193.47 1411.14C1170.05 1429.88 1162.22 1425.75 1152.36 1398.32C1136.1 1353.05 1100.72 1320.47 1072.21 1283.38C1053.85 1259.49 1035.03 1235.96 1015.29 1210.73ZM1209.44 1274.68C1230.4 1273.64 1242.47 1259.4 1254.05 1244.53C1272.73 1220.55 1272.65 1203.83 1253.95 1183.23C1238.53 1166.24 1207.59 1162.22 1188.58 1176.71C1174.4 1187.53 1152.78 1197.77 1161.69 1220.31C1170.25 1241.95 1180.65 1264.72 1209.44 1274.68ZM1062.59 1111.87C1074.11 1125.38 1082.54 1147.93 1105.98 1135.19C1126.46 1124.06 1142.29 1106.05 1148.66 1082.96C1154.1 1063.23 1145.15 1047.27 1126.16 1040.5C1098.73 1030.71 1081.84 1052.01 1063.46 1066.09C1047.6 1078.23 1050.72 1093.65 1062.59 1111.87Z" fill="black"/>
<path d="M1015.29 1210.73C980.241 1173.25 951.979 1131.79 905.941 1108.05C886.895 1098.23 897.303 1083.67 909.85 1074.41C951.997 1043.29 992.355 1010.02 1032.08 975.895C1045.45 964.408 1059.71 953.429 1075.03 944.836C1129.66 914.192 1213.24 948.391 1230.16 1006.98C1235.39 1025.09 1233.06 1042.31 1227.3 1059.26C1220.03 1080.62 1227.51 1089.45 1249.34 1088.89C1284.59 1087.98 1315.29 1100.65 1342.85 1121.73C1394.33 1161.11 1399.14 1211.07 1360.1 1262.76C1333.26 1298.3 1295.54 1320.57 1263.65 1349.84C1240.77 1370.85 1217.7 1391.75 1193.47 1411.14C1170.05 1429.88 1162.22 1425.75 1152.36 1398.32C1136.1 1353.05 1100.72 1320.47 1072.21 1283.38C1053.85 1259.49 1035.03 1235.96 1015.29 1210.73ZM1209.44 1274.68C1230.4 1273.64 1242.47 1259.4 1254.05 1244.53C1272.73 1220.55 1272.65 1203.83 1253.95 1183.23C1238.53 1166.24 1207.59 1162.22 1188.58 1176.71C1174.4 1187.53 1152.78 1197.77 1161.69 1220.31C1170.25 1241.95 1180.65 1264.72 1209.44 1274.68ZM1062.59 1111.87C1074.11 1125.38 1082.54 1147.93 1105.98 1135.19C1126.46 1124.06 1142.29 1106.05 1148.66 1082.96C1154.1 1063.23 1145.15 1047.27 1126.16 1040.5C1098.73 1030.71 1081.84 1052.01 1063.46 1066.09C1047.6 1078.23 1050.72 1093.65 1062.59 1111.87Z" fill="#B53E2B"/>
<path d="M972.327 4371.34C1001.44 4371.49 1024.72 4361.17 1047.4 4348.17C1070.68 4334.82 1082.13 4340.95 1083.33 4367.93C1084.6 4396.33 1084.5 4424.79 1084.6 4453.22C1084.7 4482.56 1076.58 4490.4 1046.18 4490.96C971.658 4492.33 897.129 4493.44 822.614 4495.12C808.456 4495.44 794.373 4498.29 780.207 4499.26C768.186 4500.08 756.826 4497.39 749.888 4486.45C743.281 4476.03 746.23 4465.67 753.352 4456.79C766.899 4439.89 764.985 4420.7 764.007 4400.91C757.561 4270.44 754.414 4139.88 756.805 4009.24C757.205 3987.41 754.302 3967.48 743.078 3948.07C730.586 3926.47 737.331 3913.02 761.159 3911.46C804.572 3908.62 848.093 3906.76 891.593 3906.16C915.956 3905.82 926.323 3922.32 914.145 3943.25C903.087 3962.24 901.818 3981.45 902.27 4002.11C904.696 4113.14 906.94 4224.17 908.849 4335.2C909.52 4374.18 913.391 4378.33 951.656 4374.85C957.822 4374.28 963.901 4372.78 972.327 4371.34Z" fill="#E5D5A1"/>
<path d="M2753.38 4004.01C2795.91 4041.6 2815.69 4087.55 2814.84 4141.98C2814.11 4188.78 2820.04 4235.43 2807.88 4282.35C2785.17 4369.99 2721.65 4401.17 2643.72 4409.6C2604.18 4413.87 2564.04 4412.94 2524.16 4413.75C2501.48 4414.21 2486.85 4399.18 2494.97 4380.68C2516.51 4331.64 2508.19 4280.62 2505.92 4230.75C2503.34 4173.85 2503.56 4116.98 2501.7 4060.12C2501 4038.72 2500.55 4018.14 2490.91 3997.88C2481.35 3977.81 2489.67 3960.64 2509.64 3960.93C2570.49 3961.84 2631.98 3949.7 2692.14 3969.26C2714.53 3976.54 2734.87 3986.49 2753.38 4004.01ZM2694.97 4281.35C2704.68 4252.79 2700.7 4223.21 2700.53 4194.11C2700.33 4158.73 2703.7 4122.96 2694.19 4088.13C2688.36 4066.77 2659.62 4053.78 2630.27 4057.71C2605.02 4061.08 2611.47 4080.44 2612.01 4094.77C2614.38 4157.71 2618.13 4220.6 2621.35 4283.5C2622.68 4309.48 2630.69 4316.28 2656.65 4312.28C2673.39 4309.7 2686.41 4301.32 2694.97 4281.35Z" fill="#E5D5A1"/>
<path d="M3025.67 3280.09C3016.94 3288.28 3008.89 3295.33 2998.44 3290.88C2986.82 3285.93 2990.68 3274.43 2990.43 3265.01C2990.13 3253.83 2993.05 3242.37 2985.93 3230.61C2977.41 3257 2970.43 3283.69 2955.75 3307.17C2951.55 3313.89 2948.46 3321.43 2943.57 3327.56C2938.51 3333.9 2931.53 3338.56 2922.59 3335.53C2913.84 3332.57 2911.18 3325.34 2910.25 3316.81C2909.24 3307.52 2913.44 3297.43 2905.19 3287.1C2890 3303.29 2884.74 3324.15 2874.85 3342.06C2839.1 3406.82 2823.18 3407.84 2780.11 3348.45C2765.87 3328.82 2758.96 3306.22 2749.26 3283.09C2738.48 3290.71 2742.88 3300.19 2742.24 3308.09C2741.38 3318.78 2742.22 3330.63 2730.01 3335.26C2716.15 3340.5 2708.8 3329.45 2701.56 3320.73C2688.32 3304.77 2681.8 3285.25 2674.16 3266.35C2672.64 3262.6 2669.88 3259.36 2667.61 3255.75C2665.02 3257.99 2663.03 3258.86 2662.62 3260.2C2659.04 3272.16 2668.67 3290.14 2651.92 3295.49C2635.08 3300.86 2625.07 3284.66 2614.51 3274.8C2571.22 3234.34 2570.71 3155.09 2636.42 3123.66C2678.6 3103.49 2711.24 3065.9 2758.38 3054.9C2824.12 3039.56 2888.43 3038.15 2947.27 3079.03C2968.39 3093.71 2990.67 3106.76 3011.37 3121.99C3079.69 3172.26 3083.77 3215.47 3025.67 3280.09Z" fill="#BB9629"/>
<path d="M3387.41 4457.82C3338.63 4458.11 3293.26 4451.81 3249.75 4435.16C3231.27 4428.09 3221.86 4414.73 3222.46 4394.08C3223.13 4371.02 3222.27 4347.98 3218.75 4325.02C3217.05 4313.91 3215.25 4300.7 3227.42 4293.68C3241.07 4285.81 3251.73 4295.45 3260.38 4303.87C3287.62 4330.4 3320.04 4341.29 3357.41 4339.18C3390.14 4337.34 3406.2 4320.81 3405.22 4288.17C3402.42 4194.12 3398.87 4100.09 3396.08 4006.04C3395.48 3985.67 3395.9 3965.17 3397.62 3944.88C3398.92 3929.62 3394.34 3917.67 3385.73 3905.46C3370.23 3883.47 3380.04 3862.63 3407.3 3861.43C3448.03 3859.63 3488.87 3859.86 3529.66 3859.88C3541.35 3859.89 3553.46 3862.42 3558.95 3874.59C3564.13 3886.08 3557.74 3895.86 3549.87 3903.18C3532.62 3919.22 3528.83 3939.03 3529.61 3961.3C3533.27 4065.11 3538.59 4168.92 3539.06 4272.75C3539.3 4326.14 3527.35 4377.31 3486.73 4418.82C3458.98 4447.17 3422.69 4446.35 3387.41 4457.82Z" fill="#E5D5A1"/>
<path d="M1589.48 844.485C1627.81 879.358 1656.71 920.24 1690.84 956.409C1708.83 975.463 1726.96 992.279 1754.22 997.534C1773.1 1001.17 1776.84 1016.36 1760.59 1027.8C1728.8 1050.2 1695.87 1071.67 1657.73 1082.33C1638.96 1087.57 1627.31 1079.33 1621.85 1060.54C1609.24 1017.17 1593.28 1011.82 1557.97 1038.43C1518.07 1068.49 1516.69 1077.49 1547.31 1118.58C1556.73 1131.21 1555.98 1142.58 1543.06 1150.34C1512.65 1168.61 1483.41 1189.05 1450.58 1203.1C1442.19 1206.69 1433.53 1209.96 1425.62 1202.83C1417.53 1195.53 1420.09 1187.04 1424.01 1178.42C1432.23 1160.35 1430.8 1142.56 1423.45 1124.26C1419.56 1114.57 1417.45 1103.71 1416.86 1093.25C1413.01 1025.95 1379.06 965.808 1371.29 899.54C1366.78 860.982 1355.42 825.362 1332.21 793.547C1323.04 780.984 1329.9 768.926 1341.42 761.665C1372.8 741.894 1406.48 726.018 1435.69 702.438C1447.35 693.03 1463.61 696.067 1470.11 710.251C1485.18 743.176 1513.86 763.473 1537.44 788.549C1554.46 806.642 1571.24 824.956 1589.48 844.485ZM1491.79 897.056C1484.43 889.724 1481.02 877.728 1467.14 874.538C1473.58 902.551 1479.55 928.007 1485.25 953.522C1488.87 969.715 1497.78 973.337 1512.3 966.067C1530.5 956.964 1538.66 945.272 1522.31 927.623C1513.39 917.988 1503.58 909.171 1491.79 897.056Z" fill="#B53E2B"/>
<path d="M4200.04 815.825C4238.48 841.112 4275.03 865.896 4311.09 891.385C4320.82 898.266 4324.57 910.186 4317.79 919.848C4280.28 973.339 4269.01 1037.17 4246.29 1096.49C4228.88 1141.97 4210.54 1187.11 4191.86 1232.09C4183.91 1251.24 4178.68 1270.41 4179.22 1291.38C4179.55 1304.11 4176.02 1316.72 4163.14 1322.75C4150.42 1328.71 4141.2 1320.07 4132.23 1312.76C4114.35 1298.19 4095.95 1284.18 4079.01 1268.59C4064.53 1255.28 4059.99 1241.14 4074.4 1222.25C4108.19 1177.95 4093.1 1138.65 4038.35 1123.43C4019.21 1118.11 3995.82 1136.21 3988.79 1161.77C3980.15 1193.22 3970.82 1197.95 3944.95 1180.04C3920.97 1163.43 3894.28 1150.3 3874.26 1128.23C3858.6 1110.97 3860.81 1099.91 3882.97 1094.18C3905.35 1088.39 3923.71 1075.89 3940.21 1061.4C4016.18 994.716 4091.92 927.799 4163.22 855.96C4175.96 843.12 4173.91 817.942 4200.04 815.825ZM4111.16 1039C4099.74 1049.54 4098.2 1059.93 4112.1 1069.53C4125.3 1078.65 4138.59 1081.18 4149.32 1066.2C4165.12 1044.15 4168.08 1017.62 4176.58 990.045C4146.32 996.672 4134.61 1022.7 4111.16 1039Z" fill="#B53E2B"/>
<path d="M3052.44 468.978C3054.38 458.079 3056.43 449.41 3057.75 440.63C3060.96 419.319 3070.91 410.572 3094.26 413.477C3123.25 417.086 3152.9 415.087 3182.13 417.321C3218.35 420.09 3227.51 433.867 3219.52 469.178C3212.2 501.515 3220.61 533 3226.74 564.147C3238.6 624.485 3239.73 685.839 3246.75 746.609C3251.08 784.041 3247.51 823.208 3273.77 855.72C3283.24 867.449 3276.58 877.847 3263.06 882.157C3257.38 883.969 3250.34 884.757 3244.76 883.134C3211.71 873.526 3178.57 863.993 3146.15 852.501C3130.8 847.06 3126.38 835.515 3132.94 818.097C3145.72 784.175 3138.92 772.88 3103.97 761.905C3099.73 760.573 3095.57 759.001 3091.32 757.698C3054.13 746.299 3040.42 754.548 3033.12 792.645C3026.5 827.244 3015.46 836.835 2980.69 832.824C2957.94 830.201 2935.3 824.831 2913.27 818.429C2898.66 814.181 2887.58 803.532 2905.06 790.146C2935.17 767.082 2946.09 732.502 2960.1 700.532C2991.41 629.075 3019.86 556.362 3049.33 484.101C3050.97 480.064 3051.29 475.484 3052.44 468.978ZM3110.89 585.228C3103.73 605.16 3096.5 625.066 3089.43 645.032C3083.4 662.093 3094.53 667.454 3107.7 670.176C3120.38 672.794 3132.96 670.139 3132.27 654.638C3131.04 627.103 3127.01 599.693 3124.03 571.048C3118.98 573.455 3116.96 573.808 3116.01 575.007C3114.4 577.025 3113.48 579.581 3110.89 585.228Z" fill="#B53E2B"/>
<path d="M4171.84 2830.29C4159.99 2803.2 4139.32 2785.54 4120.16 2767.69C4049.88 2702.2 4042.68 2616.66 4069.07 2529.6C4083.88 2480.74 4122.17 2446.06 4163.45 2417.06C4207.58 2386.07 4227.3 2344.49 4230.43 2290.94C4233.24 2242.86 4230.7 2195.25 4228.35 2147.48C4227.93 2138.97 4228.27 2131.68 4235.39 2125.93C4243.68 2119.22 4250.65 2124.23 4257.16 2128.6C4273.62 2139.67 4292.88 2143.92 4310.94 2150.9C4330.74 2158.55 4341.08 2170.49 4333.4 2191.6C4315.7 2240.31 4311.76 2291.72 4303.27 2342.17C4296.71 2381.16 4302.92 2417.84 4331.18 2448.54C4390.8 2513.31 4409.41 2589.29 4384.67 2673.07C4373.93 2709.45 4351.82 2741.77 4320.43 2765.87C4307.06 2776.14 4294.36 2787.28 4281.08 2797.66C4257.43 2816.16 4248.46 2838.94 4245 2870.05C4239.36 2920.65 4224.83 2970.44 4211.49 3019.88C4207.15 3035.96 4194.05 3050.2 4173.62 3045.99C4156.48 3042.45 4142.84 3010.8 4153.15 2989.07C4169.03 2955.6 4169.07 2920.21 4173.69 2885.22C4176.01 2867.59 4177.39 2849.84 4171.84 2830.29ZM4338.55 2610.59C4339.62 2572.32 4330.88 2536.97 4309.2 2504.8C4276.38 2456.09 4221.83 2433.84 4167.34 2479.33C4087.88 2545.66 4091.14 2664.86 4149.34 2724.48C4187.1 2763.15 4267.37 2756.73 4298.19 2712.43C4318.75 2682.86 4334.77 2651.55 4338.55 2610.59Z" fill="#BB9629"/>
<path d="M2786.09 661.602C2760.33 646.342 2734.05 652.8 2708.67 652.389C2698.11 652.218 2693.25 660.457 2692.46 670.225C2691.59 680.825 2691.7 691.504 2691.32 702.146C2690.62 722.063 2699.62 731.74 2720.11 730.961C2749.35 729.849 2778.54 731.24 2807.76 726.222C2844.58 719.9 2874.67 752.031 2868.71 789.27C2866.53 802.879 2857.22 811.686 2845.05 815.805C2834.29 819.444 2822.56 821.653 2811.21 821.829C2743.7 822.875 2676.18 823.434 2608.65 823.556C2574.64 823.618 2567.72 814.125 2580.5 783.377C2586.8 768.221 2582.89 753.87 2583.25 739.018C2585.31 652.799 2578.23 566.822 2577.4 480.706C2577.2 459.803 2575.6 440.24 2564.26 422.069C2558.01 412.056 2553.81 400.991 2562.34 389.803C2570.42 379.214 2581.1 383.127 2591.7 384.368C2660.77 392.456 2729.99 389.031 2799.13 385.653C2819.69 384.648 2838.94 383.44 2848.93 405.83C2861.02 432.932 2855.66 478.985 2839.6 491.823C2832.74 497.303 2825.14 499.335 2817.33 494.957C2782.1 475.204 2744.18 486.154 2707.73 486.879C2680.48 487.421 2691.41 513.804 2689.34 529.209C2687.43 543.351 2690.42 559.443 2710.48 559.327C2736.79 559.175 2763.58 563.576 2788.46 548.857C2805.68 538.673 2818.73 544.576 2819.65 565.316C2820.8 590.97 2820.96 616.876 2818.6 642.402C2817.1 658.614 2808.83 672.129 2786.09 661.602Z" fill="#B53E2B"/>
<path d="M2882.3 1711.32C2917.59 1693.26 2953.52 1683.92 2991.02 1680.54C3004.65 1679.31 3016.79 1674.45 3028.84 1668.55C3036.81 1664.65 3044.8 1665.35 3050.11 1673.22C3054.95 1680.4 3051.53 1687.54 3046.34 1692.49C3036.12 1702.27 3026.17 1713.39 3013.94 1719.84C2966.09 1745.07 2925.3 1780.3 2889.78 1819.13C2856.4 1855.63 2826.71 1897.53 2813.8 1947.61C2810.22 1961.51 2800.71 1968.08 2787.8 1971.28C2771.36 1975.37 2771.39 1960.18 2767.07 1950.78C2755.23 1958.82 2755.3 1969.98 2753.05 1980.23C2750.39 1992.32 2748.27 2004.65 2744.22 2016.28C2740.46 2027.12 2735.38 2039.51 2720.85 2037.85C2705.63 2036.12 2707.04 2022.59 2704.44 2011.3C2698.18 1984.24 2688.94 1957.9 2687.62 1927.29C2683.04 1931.34 2681.06 1932.23 2680.86 1933.41C2678.63 1946.78 2684.89 1965.55 2667.56 1970.46C2648.6 1975.84 2643.1 1956.85 2635.82 1944.26C2612.42 1903.75 2595.61 1858.87 2558.95 1827.2C2516.24 1790.31 2478.68 1746.59 2423.34 1726.4C2408.31 1720.92 2400.83 1707.81 2396.13 1688.25C2461.89 1694.26 2524.44 1697.49 2580.98 1735.91C2582.22 1720.13 2574.84 1714.54 2569.48 1708.17C2561.78 1698.98 2553.54 1689.08 2562.43 1677.55C2571.38 1665.94 2584.19 1671.47 2594.3 1676.39C2646.83 1701.94 2683.56 1742.72 2706.33 1796.2C2709.42 1803.46 2709.91 1811.99 2719.3 1816C2731.41 1813.17 2732.39 1801.18 2737.1 1792.32C2762.72 1744.03 2791.28 1698.38 2842.5 1672.65C2852.61 1667.57 2863.7 1658.15 2873.85 1669.14C2884.28 1680.44 2876.86 1692.23 2869.23 1702.74C2865.77 1707.51 2859.85 1711.35 2862.17 1719.07C2870.29 1722.27 2874.89 1715.43 2882.3 1711.32Z" fill="#BB9629"/>
<path d="M2978.75 4274.64C2976.83 4298.88 2986.42 4307.88 3008.52 4305.98C3033.87 4303.8 3059.47 4308.52 3084.06 4295.27C3099.02 4287.2 3112.72 4296.19 3116.07 4312.92C3120.45 4334.73 3120.65 4357.26 3117.17 4379.25C3115 4392.99 3104.08 4401.3 3090.57 4401.51C3018.58 4402.66 2946.56 4403.65 2874.57 4403.01C2856.01 4402.84 2845.49 4387.72 2854.62 4371.36C2870.78 4342.39 2864.85 4312.32 2864.24 4282.76C2862.52 4199.24 2858.87 4115.77 2856.16 4032.27C2855.76 4019.72 2854.06 4008.12 2848.16 3996.41C2835.33 3970.94 2842.95 3957.87 2872.02 3955.93C2897.71 3954.22 2923.58 3955.29 2949.36 3954.65C2985.8 3953.75 3022.22 3952.37 3058.66 3951.27C3097.96 3950.08 3107.6 3959.29 3107.8 3998.63C3107.88 4014.63 3108.48 4030.76 3106.71 4046.58C3104.9 4062.73 3095.61 4070.13 3078.55 4063.88C3051.52 4053.97 3022.85 4053.82 2994.74 4050.18C2978.37 4048.06 2973.89 4055.44 2974.72 4069.71C2975.24 4078.59 2975.61 4087.48 2975.92 4096.37C2977.56 4143.24 2989.31 4150.51 3032.77 4131.48C3067.55 4116.24 3073.32 4119.95 3075.26 4158.77C3075.39 4161.43 3075.55 4164.1 3075.65 4166.76C3078.11 4228.82 3078.11 4228.82 3017.8 4229.02C2978.15 4229.14 2978.15 4229.14 2978.75 4274.64Z" fill="#E5D5A1"/>
<path d="M4802.05 1785.73C4778.85 1789.16 4758.08 1796.8 4736.69 1794.39C4698.04 1790.03 4667.7 1805.99 4639.73 1829.91C4574.71 1885.5 4520.01 1951.44 4458.48 2010.57C4428.81 2039.09 4416.58 2042.19 4382.86 2018.72C4331.67 1983.08 4333.56 1979.98 4386.25 1948.21C4461.59 1902.8 4531.72 1849.81 4593.47 1786.43C4615.51 1763.82 4610.17 1737.05 4606.49 1710.98C4602.76 1684.49 4600.32 1657.99 4600.21 1631.36C4599.77 1528.04 4662.87 1469.01 4747.58 1428.96C4805.12 1401.75 4863.48 1402.31 4913.1 1449.97C4955.89 1491.08 4975.03 1561.04 4955.37 1619.31C4945.51 1648.54 4937.26 1677.79 4915.58 1702.51C4884.04 1738.46 4850.3 1769.67 4802.05 1785.73ZM4866.27 1674.32C4889.24 1645.56 4896.65 1611.23 4901.91 1576.01C4907.46 1538.88 4885.33 1495.44 4852.43 1479.77C4820.02 1464.33 4746.29 1481.13 4715.41 1510.59C4673.26 1550.8 4652.22 1598.41 4657.44 1657.92C4661.97 1709.59 4701.85 1747.16 4752.51 1737.94C4795.27 1730.16 4837.08 1716.35 4866.27 1674.32Z" fill="#BB9629"/>
<path d="M3009.97 4738.3C2989.97 4719.45 2992.27 4704.4 3014.75 4696.34C3028.25 4691.51 3042.59 4691.18 3056.88 4690.92C3246.99 4687.47 3437.03 4681.4 3627.16 4678.09C3879.51 4673.69 4131.81 4668.97 4384.21 4669.86C4412.21 4669.96 4438.79 4676.47 4465.85 4681.08C4477.01 4682.98 4485.93 4689.5 4485.84 4702.44C4485.76 4714.42 4476.36 4718.96 4466.92 4721.99C4460.28 4724.13 4453.03 4725.14 4446.03 4725.26C4239.92 4728.72 4033.81 4732.73 3827.68 4735.14C3572.63 4738.13 3317.56 4739.84 3062.5 4741.87C3045.69 4742 3028.87 4740.14 3009.97 4738.3Z" fill="#B23A30"/>
<path d="M1195.25 4768.93C1184.81 4765.88 1177.47 4762.25 1180.74 4751.75C1183.43 4743.08 1190.87 4739.63 1199.25 4738.79C1234.57 4735.2 1269.91 4731.88 1305.25 4728.44C1402.55 4718.96 1500.11 4714.43 1597.85 4713.05C1771.11 4710.61 1944.44 4710.43 2117.61 4704.93C2249.15 4700.76 2380.65 4703.18 2512.15 4700.69C2532.28 4700.31 2558.87 4698.26 2558.88 4726.65C2558.88 4752.95 2533.39 4750.93 2513.91 4752.15C2357.74 4761.92 2201.29 4759.88 2044.97 4763.57C1783.76 4769.72 1522.56 4774.26 1261.28 4772.61C1240 4772.48 1218.74 4770.54 1195.25 4768.93Z" fill="#B23A30"/>
<path d="M2490.69 3288.13C2513.12 3287.55 2517.49 3303.56 2520.47 3318.02C2528.73 3358.2 2550.13 3392.8 2572.88 3424.45C2622.9 3494.06 2637.54 3571.08 2634.63 3653.82C2634.27 3663.99 2632.27 3673.77 2620.98 3677.36C2610.45 3680.71 2600.89 3677.52 2595.43 3668.15C2564.24 3614.62 2508.8 3587.6 2464.91 3547.99C2382.22 3473.36 2337.06 3381.84 2351.68 3269.48C2356.89 3229.41 2368.18 3187.71 2391.61 3152.01C2397.35 3143.25 2401.96 3131.1 2415.26 3135C2426.7 3138.36 2426.17 3150.29 2426.29 3159.84C2426.72 3192.72 2427.51 3225.64 2426.31 3258.48C2424.48 3308.27 2452.09 3349.75 2463.37 3395.79C2464.22 3399.26 2469.22 3401.72 2474.77 3407.01C2479.63 3391.32 2475.44 3378.8 2474.54 3366.09C2472.62 3339.27 2464.77 3310.96 2490.69 3288.13Z" fill="#BB9629"/>
<path d="M3141.26 3576.33C3114.47 3599.96 3091.79 3624.92 3069.43 3650.22C3062.38 3658.2 3054.23 3667.46 3042.33 3663.05C3029.34 3658.22 3033.8 3645.26 3032.96 3635.09C3028.16 3576.9 3038.11 3520.35 3055.43 3465.37C3064.95 3435.14 3085.52 3409.58 3099.08 3380.64C3111.58 3353.95 3120.95 3326.73 3129.43 3298.89C3133.46 3285.69 3140.56 3276.02 3155.55 3277.44C3169.88 3278.8 3172.19 3289.71 3174.5 3302.16C3180.16 3332.65 3181.43 3363.02 3174.23 3393.8C3188.82 3395.12 3189.26 3385.7 3192.4 3378.99C3225.52 3308.17 3223.49 3233.3 3217.92 3158.01C3217.46 3151.84 3216.33 3145.52 3217.16 3139.5C3218.69 3128.37 3223.65 3118.33 3235.69 3116.12C3247.26 3113.99 3254 3122.64 3257.84 3131.78C3285.77 3198.16 3315.25 3265.73 3301.29 3339.26C3290.42 3396.52 3269.63 3452.41 3228.91 3496.74C3202.68 3525.29 3178.63 3556.93 3141.26 3576.33Z" fill="#BB9629"/>
<path d="M4144.59 1777.54C4181.51 1820.86 4217.17 1862.75 4252.99 1904.51C4259.4 1911.99 4268.38 1919.6 4261.94 1929.89C4254.38 1941.99 4244.59 1933.14 4236.37 1929.02C4178.55 1900.1 4120.72 1871.17 4063.2 1841.67C4049.5 1834.64 4040.39 1822.43 4032.54 1809.13C3971.71 1706.06 3905.23 1606.56 3841.14 1505.54C3813.15 1461.41 3787.37 1415.88 3760.78 1370.88C3757.64 1365.57 3755.55 1359.59 3753.32 1353.79C3748.29 1340.72 3739.13 1323.79 3754.03 1315.58C3768.36 1307.69 3779.01 1323.9 3787.93 1334.62C3869.61 1432.83 3951.39 1530.89 4027.41 1633.69C4063.77 1682.85 4104.6 1728.71 4144.59 1777.54Z" fill="#BB9629"/>
<path d="M3145.55 1917.84C3161.2 1901.27 3175.56 1886.1 3189.6 1871.26C3182.29 1861.55 3176.55 1865.99 3171.66 1869.13C3139.63 1889.71 3108.37 1911.57 3075.7 1931.06C3046.15 1948.69 3015.21 1964.01 2984.68 1979.97C2975.73 1984.65 2965.32 1987.62 2958.02 1977.88C2949.93 1967.1 2952.33 1955.16 2961.41 1946.37C2998.35 1910.58 3032.83 1872.23 3074.46 1841.32C3130.92 1799.39 3194.71 1773.09 3262.1 1757.27C3331.78 1740.92 3399.95 1748.68 3461.82 1788.57C3470.89 1794.43 3479.47 1802.55 3476.37 1814.78C3472.84 1828.67 3460.05 1826.26 3449.82 1826.49C3377.5 1828.1 3317.02 1853.84 3264.88 1905.67C3230.17 1940.18 3192.25 1972.66 3140.29 1983.57C3118.78 1988.09 3100.42 2006.27 3075.54 2003.22C3065.79 2002.02 3054.52 2003.33 3051.25 1991.52C3047.77 1978.92 3059.35 1975.99 3067.29 1970.55C3092.74 1953.14 3122.73 1942.51 3145.55 1917.84Z" fill="#BB9629"/>
<path d="M3287.08 2006.1C3271.64 2013.49 3258 2019.95 3244.38 2026.48C3235.62 2030.68 3225.69 2037.56 3218.36 2026.58C3211.64 2016.49 3219.53 2007.81 3226.7 2001.13C3242.27 1986.61 3259.02 1973.34 3274.26 1958.5C3297.05 1936.29 3319.74 1915.47 3348.03 1898.76C3412.86 1860.45 3470.65 1872.66 3527.67 1912.41C3609.65 1969.56 3608.64 2046.23 3570.6 2125.6C3558.32 2151.21 3546.01 2176.62 3527.57 2198.57C3503.89 2226.77 3487.69 2225.51 3470.11 2193.86C3463.66 2182.23 3456.81 2170.82 3450.59 2159.07C3445.04 2148.6 3432.6 2138.98 3441.46 2125.6C3451.48 2110.45 3463.69 2127.12 3474.72 2125.85C3483.64 2095.63 3476.71 2080.33 3448.65 2069.3C3434.48 2063.72 3419.39 2062.54 3404.2 2061.88C3392.57 2061.38 3379.71 2060.04 3376.6 2045.96C3373.54 2032.11 3384.37 2024.78 3394.38 2019.11C3422.88 2002.99 3454.01 1998.54 3487.4 2002.37C3470.51 1973.85 3434.02 1962.06 3393.34 1969.26C3356.55 1975.78 3321.63 1987.17 3287.08 2006.1Z" fill="#BB9629"/>
<path d="M1593.7 1610.92C1619.64 1623.6 1639.92 1639.7 1656.95 1661.28C1669.35 1676.99 1683.9 1693.05 1703.84 1699.52C1730.45 1708.16 1738.79 1737.54 1763.76 1748.6C1774.44 1753.33 1770.73 1768.92 1763.82 1777.27C1732.4 1815.22 1715.17 1861.79 1686.9 1901.55C1683.33 1906.57 1679.03 1911.18 1674.52 1915.4C1665.33 1923.98 1654.83 1928.83 1643.64 1919.55C1633.03 1910.76 1633.23 1899.26 1640 1888.29C1647.91 1875.45 1656.03 1862.61 1665.43 1850.87C1676.67 1836.83 1674.93 1827.17 1660.86 1815.72C1596.96 1763.71 1537.06 1706.89 1470.51 1657.99C1449.08 1642.24 1429.85 1623.53 1408.77 1607.26C1395.7 1597.18 1382.22 1592.56 1371.63 1612.42C1367.09 1620.93 1358.54 1629.03 1347.64 1621.07C1338.23 1614.2 1343.31 1604.96 1347.29 1597C1367.36 1556.88 1396.27 1523.19 1426.06 1490.26C1434.76 1480.64 1446.91 1478.13 1456.98 1487.31C1466.3 1495.8 1463.25 1506.59 1456.56 1516.3C1449.14 1527.08 1435.91 1533.24 1431.72 1546.81C1433.78 1547.51 1436.08 1548.96 1436.74 1548.42C1471.93 1519.5 1476.56 1520.53 1510.8 1552.66C1535.05 1575.41 1558.75 1599.7 1593.7 1610.92Z" fill="#BB9629"/>
<path d="M2460.37 1987.62C2380.58 1955.28 2314.44 1902.34 2238.5 1866.78C2277.7 1907.48 2316.45 1948.16 2368.74 1972.87C2383.7 1979.94 2410.13 1983.54 2404.39 2005.51C2398.12 2029.47 2373.51 2016.64 2358.2 2013.58C2302.69 2002.5 2252.83 1977.96 2208.97 1942.05C2178.13 1916.81 2150.2 1887.67 2112 1872.72C2075.69 1858.52 2039 1846.3 1999.14 1850.44C1988.96 1851.5 1978.13 1852.28 1973.66 1841.48C1968.5 1829.02 1978.52 1819.77 1987.29 1815.62C2021.54 1799.41 2054.99 1779.56 2093.63 1776.02C2199.96 1766.29 2293.78 1800.21 2379.71 1860.46C2417.7 1887.1 2449.38 1920.84 2483.55 1951.77C2491.99 1959.42 2497.18 1969.53 2492.01 1980.44C2485.86 1993.44 2474.19 1993.22 2460.37 1987.62Z" fill="#BB9629"/>
<path d="M1817.89 2493.41C1841.1 2422.96 1872.87 2360.3 1931.59 2315.19C1942.07 2307.14 1955.88 2292.74 1968.18 2308.66C1978.59 2322.14 1962.7 2332.24 1954.7 2342.24C1950.38 2347.63 1942.31 2349.61 1939.95 2360.7C1982.08 2344.59 2020.62 2325.53 2058.34 2304.45C2121.4 2269.22 2170.21 2217.4 2219.81 2166.54C2252.05 2133.48 2293.45 2114.4 2332.11 2091.08C2334.35 2089.73 2337 2088.68 2339.58 2088.32C2355.18 2086.12 2375.16 2078.92 2383.95 2094.5C2394.63 2113.43 2372.26 2118.79 2361 2126.52C2294.42 2172.17 2244.49 2235.22 2187.29 2290.68C2147.64 2329.12 2102.24 2360.18 2053.74 2387.1C2026.06 2402.46 2001.6 2423.53 1974.45 2439.98C1916.55 2475.04 1872.77 2524.68 1830 2575.62C1823.76 2583.05 1815.7 2587.26 1806.52 2581.87C1798.01 2576.87 1794.44 2567.41 1797.48 2558.67C1804.77 2537.75 1805.77 2514.94 1817.89 2493.41Z" fill="#BB9629"/>
<path d="M3358.71 2205.75C3324.29 2170.78 3288.87 2139.9 3251.03 2111.66C3240.53 2103.82 3222.03 2096.45 3232.29 2078.94C3242.11 2062.17 3260.23 2068.21 3273.03 2075.36C3329.45 2106.9 3387.14 2136.13 3434.23 2182.53C3497.18 2244.56 3566.38 2298.03 3652.21 2326.29C3667.47 2331.32 3680.65 2342.65 3699.37 2353.79C3694.12 2334.99 3680.11 2329.51 3673.97 2318.48C3668.6 2308.83 3657.04 2298.28 3668.76 2287.85C3681.09 2276.9 3693.2 2284.74 3704.02 2294.28C3731.62 2318.6 3755.14 2347.2 3772.98 2378.4C3795.17 2417.19 3820.87 2455.89 3821.86 2503.61C3822.14 2516.8 3826.52 2532 3811.92 2539.24C3796.81 2546.74 3790.41 2532.08 3782.34 2523.12C3721.64 2455.65 3650.02 2402.66 3569.54 2361C3491.73 2320.7 3421.64 2269.62 3358.71 2205.75Z" fill="#BB9629"/>
<path d="M2073.13 2096.71C2052.62 2113.01 2042.74 2131.18 2050.82 2155.81C2082.14 2156.95 2087 2164.62 2075.46 2195.01C2069.79 2209.93 2064.43 2225.15 2056.84 2239.09C2046.28 2258.49 2033.09 2258.92 2019.78 2242.08C1978.76 2190.22 1954.28 2130.49 1940.17 2066.78C1933.09 2034.81 1947.09 2004.75 1965.13 1979.61C2008.22 1919.59 2067.71 1892.12 2141.36 1906.28C2171.38 1912.05 2199.49 1927.25 2223.3 1947.8C2249.48 1970.41 2275.29 1993.45 2300.79 2016.83C2307.5 2022.99 2318.76 2029.79 2310.88 2040.98C2302.35 2053.11 2292.14 2044.01 2282.47 2040.29C2234.81 2021.93 2189.9 1995.75 2136.67 1993.64C2114.02 1992.74 2092.31 1994.79 2070.87 2000.71C2060.81 2003.49 2050.32 2007.65 2050 2021.08C2055.88 2030.14 2064.57 2026.49 2072.07 2026.38C2083.85 2026.2 2095.42 2027.74 2105.94 2032.5C2121.56 2039.57 2144.29 2043.44 2142.65 2065.18C2140.98 2087.42 2118.24 2080.21 2103.75 2083.3C2093.18 2085.56 2082.9 2087.84 2073.13 2096.71Z" fill="#BB9629"/>
<path d="M3810.2 826.546C3825.47 794.318 3839.81 763.848 3854.91 733.754C3865.61 712.426 3871.14 690.918 3865.17 666.908C3862.33 655.495 3863.01 643.252 3874.91 636.062C3885.65 629.562 3895.85 634.043 3904.65 640.529C3930.34 659.468 3954.9 679.443 3985.78 690.81C4003.07 697.172 4001.07 712.963 3990.52 726.183C3950.21 776.692 3926.8 836.517 3899.04 893.789C3883.88 925.068 3865.25 954.196 3849.02 984.753C3833.12 1014.69 3816.36 1043.79 3833.76 1079.71C3840.72 1094.07 3833.53 1102.68 3817.03 1097.54C3804.38 1093.61 3791.68 1089.01 3780.1 1082.7C3755.16 1069.12 3731.78 1052.68 3704.05 1044.49C3695.43 1041.94 3687.3 1036.94 3685.94 1026.83C3684.7 1017.57 3690.7 1011.14 3698.46 1008.35C3726.71 998.17 3736.48 974.334 3747.77 949.312C3766.36 908.118 3788.79 868.656 3810.2 826.546Z" fill="#B53E2B"/>
<path d="M2945.5 3583.23C2914.25 3623.32 2889.96 3665.56 2867.59 3708.84C2859.57 3724.36 2855.05 3741.67 2848.77 3758.09C2845.66 3766.2 2839.85 3771.54 2830.93 3771.84C2821.43 3772.16 2816.32 3766.25 2814.38 3757.61C2798.97 3689.04 2750.28 3640.33 2711.98 3585.4C2695.79 3562.18 2679.61 3538.91 2664.55 3514.97C2651.03 3493.47 2652.82 3468.67 2654.59 3444.96C2655.86 3427.98 2670.91 3423.65 2683.1 3438.07C2725.94 3488.76 2776.85 3532.78 2810.48 3591.16C2815.53 3599.92 2817.49 3611.96 2830.85 3614.18C2841.39 3609.58 2845.14 3599.23 2850.14 3590.07C2881.52 3532.59 2925.16 3484.75 2969.8 3437.69C2976.91 3430.2 2985.04 3424.45 2995.59 3430.27C3006.52 3436.29 3008.58 3446.38 3005.69 3457.84C2997.2 3491.55 2985.32 3523.79 2965.18 3552.55C2958.58 3561.97 2952.62 3571.84 2945.5 3583.23Z" fill="#BB9629"/>
<path d="M2706.16 4799.33C2720.23 4756.12 2720.24 4756.11 2684.7 4731.12C2676.65 4725.45 2667.65 4720 2670.71 4708.05C2673.66 4696.56 2684.05 4692.7 2693.57 4693.41C2730.85 4696.19 2746.48 4676.77 2750.41 4642.56C2751.42 4633.78 2755.96 4625.13 2766.75 4624.07C2777.05 4623.06 2783.09 4629.86 2787.7 4637.76C2790.81 4643.08 2793.53 4648.77 2795.41 4654.63C2802.88 4677.99 2817.48 4689.78 2843.05 4687.06C2856.38 4685.64 2871.39 4685.33 2875.82 4702.17C2880.27 4719.11 2865.78 4724.88 2854.7 4731.87C2826.41 4749.71 2824.14 4756.14 2837.72 4788.17C2842.31 4799 2849.1 4809.5 2837.58 4819.46C2826.33 4829.18 2815.65 4822.64 2806.18 4815.85C2784.07 4799.99 2764.51 4803.7 2743.03 4818.9C2718.42 4836.32 2710.31 4831.54 2706.16 4799.33Z" fill="#B23A30"/>
<path d="M3050.58 1817.45C2998.35 1863 2947.67 1907.44 2903.51 1958.68C2897.07 1966.15 2890.31 1974.46 2878.88 1968.02C2868.84 1962.35 2869.26 1952.36 2869.17 1942.26C2868.99 1922.86 2883.06 1910.06 2890.29 1894.14C2910.67 1849.22 2939.14 1810.73 2977.05 1778.39C3012.85 1747.85 3056.02 1740.9 3099.51 1733.53C3109.31 1731.87 3119.56 1733.78 3123.93 1745.03C3128.93 1757.9 3120.23 1764.71 3111.46 1771.31C3091.62 1786.25 3071.8 1801.21 3050.58 1817.45Z" fill="#BB9629"/>
<path d="M960.441 3281.69C963.589 3283.02 964.793 3284.06 966.76 3285.98C981.854 3304.27 979.377 3319.41 964.257 3336.03C912.157 3393.28 852.562 3439.29 779.192 3466.23C766.147 3471.02 753.173 3471.67 739.88 3470.71C721.868 3469.41 709.512 3459.88 706.284 3442C702.797 3422.69 714.679 3412.53 731.265 3406.43C771.125 3391.76 813.306 3382.46 847.403 3354.66C871.452 3335.05 897.036 3317.11 916.228 3292.29C927.827 3277.29 941.665 3274.27 960.441 3281.69Z" fill="#BB9629"/>
<path d="M2452.54 1876.45C2416.81 1838.64 2373.58 1813.49 2333.9 1783.81C2325.76 1777.72 2317.34 1771.63 2321.31 1760.12C2324.86 1749.79 2334.88 1749.45 2343.78 1749.95C2421.53 1754.29 2485.39 1781.62 2527.43 1852.39C2544.16 1880.54 2559.43 1909.32 2575.19 1937.91C2581.27 1948.94 2589.35 1960.45 2576.93 1971.41C2564.71 1982.19 2556.01 1971.75 2547.49 1963.9C2516.31 1935.16 2485.11 1906.45 2452.54 1876.45Z" fill="#BB9629"/>
<path d="M680.11 2716.82C720.9 2764.06 723.424 2766.11 682.199 2816.67C657.757 2846.64 637.47 2877.81 620.244 2911.89C614.235 2923.77 606.574 2934.24 606.481 2948.55C606.413 2959 600.563 2967.34 589.572 2969.82C578.092 2972.42 571.031 2965.45 565.801 2956.62C542.338 2916.99 552.686 2877.72 568.098 2838.94C585.36 2795.51 626.364 2767.94 644.966 2725.01C650.311 2712.67 664.167 2714.31 678.171 2716.7C680.387 2717.06 680.209 2716.89 680.11 2716.82Z" fill="#BB9629"/>
<path d="M1484.01 1820.2C1481.31 1815.79 1479.43 1810.28 1475.63 1807.03C1429.05 1767.22 1382.15 1727.8 1335.44 1688.14C1325.32 1679.54 1315.2 1670.86 1305.91 1661.4C1293.22 1648.47 1296.38 1635.85 1308.63 1624.4C1320.25 1613.54 1330.86 1616.8 1341.4 1626.53C1404.69 1684.97 1474.93 1734.99 1540.36 1790.84C1551.14 1800.04 1563.07 1808.09 1570.3 1820.83C1576.77 1832.23 1576.2 1843.07 1566.71 1852.47C1557.06 1862.03 1545.95 1862.12 1535.17 1854.85C1519 1843.94 1503.28 1832.36 1485.6 1820.54C1483.83 1820.02 1483.94 1820.15 1484.01 1820.2Z" fill="#BB9629"/>
<path d="M4783.42 3736.45C4757.77 3767.43 4726.89 3790.16 4698.23 3815.05C4675.9 3834.43 4646.13 3831.3 4619.08 3827.22C4601.23 3824.53 4597.31 3809.95 4606.97 3794.71C4618.31 3776.81 4630.43 3759.65 4638.92 3739.87C4645.3 3725.01 4659.27 3718.93 4676.09 3719.18C4705.22 3719.61 4734.43 3721.17 4762.36 3708.91C4769.57 3705.75 4780.2 3701.2 4787.13 3709.91C4793.64 3718.1 4787.84 3726.73 4783.42 3736.45Z" fill="#E5D5A1"/>
<path d="M2406 2776.91C2395.82 2792.52 2385.09 2790.7 2374.09 2780.69C2347.8 2756.79 2332.45 2725.63 2318.38 2693.98C2314.67 2685.63 2312.31 2674.07 2322.7 2667.32C2332.57 2660.9 2340.51 2668.39 2345.58 2675.03C2369.37 2706.24 2402.19 2732.14 2406 2776.91Z" fill="#BB9629"/>
<path d="M3086.08 2400.52C3102.85 2401.38 3111.16 2393.29 3116.75 2380.93C3121.29 2370.89 3127.1 2360.36 3140.03 2363.7C3153.96 2367.29 3158.16 2380.04 3158.76 2392.91C3160.6 2432.31 3104.29 2467.57 3064.71 2452.15C3062.24 2451.19 3059.78 2450.07 3057.53 2448.69C3043.2 2439.89 3024.41 2431.39 3029.8 2411.44C3035.61 2389.89 3055.32 2398.61 3070.6 2400.05C3075.01 2400.47 3079.46 2400.4 3086.08 2400.52Z" fill="#BB9629"/>
<path d="M2487.16 2453.81C2459.57 2434.28 2453.07 2412.51 2466.32 2389.58C2477.88 2369.57 2493.49 2366.91 2504.95 2386.37C2519.71 2411.44 2537.5 2411.11 2558.44 2398.8C2571.39 2391.18 2583.74 2386.13 2592.79 2401.34C2602.95 2418.42 2598.34 2435.77 2581.72 2445.32C2552.81 2461.93 2521.99 2472.3 2487.16 2453.81Z" fill="#BB9629"/>
</svg>
